<svg width="18" height="18" viewBox="0 0 18 18" fill="none" xmlns="http://www.w3.org/2000/svg">
<path fill-rule="evenodd" clip-rule="evenodd" d="M17.7061 2.20711C18.0967 1.81659 18.0967 1.18343 17.7061 0.792901C17.3156 0.402377 16.6824 0.402377 16.2919 0.792901L9.24902 7.83579L2.20613 0.792901C1.81561 0.402377 1.18244 0.402377 0.791917 0.792901C0.401393 1.18343 0.401393 1.81659 0.791917 2.20711L7.83481 9.25001L0.791915 16.2929C0.401391 16.6834 0.401391 17.3166 0.791915 17.7071C1.18244 18.0976 1.81561 18.0976 2.20613 17.7071L9.24902 10.6642L16.2919 17.7071C16.6824 18.0976 17.3156 18.0976 17.7061 17.7071C18.0967 17.3166 18.0967 16.6834 17.7061 16.2929L10.6632 9.25001L17.7061 2.20711Z" fill="white"/>
</svg>
