<svg width="432" height="432" viewBox="0 0 432 432" fill="none" xmlns="http://www.w3.org/2000/svg">
<rect x="53" y="53" width="326" height="326" rx="163" fill="black"/>
<g filter="url(#filter0_f_318_3222)">
<circle cx="216" cy="216" r="176.065" stroke="white" stroke-width="4.9771"/>
<circle cx="216" cy="216" r="176.065" stroke="url(#paint0_linear_318_3222)" stroke-width="4.9771"/>
</g>
<g filter="url(#filter1_f_318_3222)">
<circle cx="216" cy="216" r="176.065" stroke="white" stroke-width="4.9771"/>
<circle cx="216" cy="216" r="176.065" stroke="url(#paint1_linear_318_3222)" stroke-width="4.9771"/>
</g>
<g filter="url(#filter2_f_318_3222)">
<circle cx="216" cy="216" r="176.065" stroke="white" stroke-width="2.48855"/>
<circle cx="216" cy="216" r="176.065" stroke="url(#paint2_linear_318_3222)" stroke-width="2.48855"/>
</g>
<circle cx="216" cy="216" r="176.065" stroke="white" stroke-width="2"/>
<path d="M170.601 200.716H183.207V204.337L176.531 211.301H183.207V215.201H170.601V211.58L177.276 204.616H170.601V200.716Z" fill="white"/>
<path d="M194.983 206.872L201.544 215.201H195.785L191.86 210.243L190.37 211.858V215.201H185.786V194.588H190.37V205.897L194.954 200.716H200.684L194.983 206.872Z" fill="white"/>
<path d="M216.151 215.201H202.399V195.702H207.27V211.022H216.151V215.201Z" fill="white"/>
<path d="M224.168 200.438C226.154 200.438 227.749 200.939 228.952 201.942C230.175 202.926 230.786 204.384 230.786 206.315V215.201H226.202V213.78C225.113 214.913 223.681 215.479 221.904 215.479C220.491 215.479 219.316 215.099 218.38 214.337C217.463 213.557 217.005 212.527 217.005 211.245C217.005 208.423 218.991 206.826 222.964 206.454L224.998 206.287C225.801 206.231 226.202 205.916 226.202 205.34C226.202 204.969 226.011 204.662 225.629 204.421C225.266 204.179 224.798 204.059 224.225 204.059C223.575 204.059 223.06 204.226 222.678 204.56C222.296 204.894 222.067 205.331 221.99 205.869L217.435 204.922C217.588 203.678 218.256 202.62 219.44 201.747C220.644 200.874 222.219 200.438 224.168 200.438ZM223.079 211.997C223.881 211.997 224.597 211.719 225.228 211.162C225.877 210.605 226.202 209.983 226.202 209.295V209.212C226.011 209.305 225.657 209.379 225.142 209.435L222.936 209.685C222.038 209.797 221.589 210.187 221.589 210.855C221.589 211.208 221.713 211.487 221.961 211.691C222.229 211.895 222.601 211.997 223.079 211.997Z" fill="white"/>
<path d="M233.075 209.017V200.716H237.659V209.017C237.659 209.741 237.888 210.326 238.347 210.772C238.824 211.199 239.454 211.412 240.237 211.412C240.982 211.412 241.594 211.199 242.071 210.772C242.568 210.326 242.816 209.741 242.816 209.017V200.716H247.4V209.017C247.4 210.93 246.722 212.489 245.366 213.696C244.029 214.885 242.319 215.479 240.237 215.479C238.117 215.479 236.389 214.885 235.052 213.696C233.734 212.489 233.075 210.93 233.075 209.017Z" fill="white"/>
<path d="M258.856 200.438C260.613 200.438 262.026 200.985 263.096 202.081C264.185 203.177 264.729 204.588 264.729 206.315V215.201H260.145V207.151C260.145 206.352 259.877 205.711 259.343 205.229C258.827 204.727 258.139 204.477 257.28 204.477C256.439 204.477 255.752 204.727 255.217 205.229C254.682 205.711 254.415 206.352 254.415 207.151V215.201H249.831V200.716H254.415V202.443C255.542 201.106 257.022 200.438 258.856 200.438Z" fill="white"/>
<path d="M268.89 213.334C267.362 211.886 266.598 210.094 266.598 207.958C266.598 205.823 267.362 204.04 268.89 202.61C270.437 201.162 272.347 200.438 274.62 200.438C276.205 200.438 277.638 200.846 278.917 201.663C280.197 202.462 281.152 203.604 281.783 205.089L277.6 206.482C277.007 205.164 276.014 204.504 274.62 204.504C273.684 204.504 272.901 204.839 272.271 205.507C271.659 206.157 271.354 206.974 271.354 207.958C271.354 208.943 271.659 209.769 272.271 210.437C272.901 211.087 273.684 211.412 274.62 211.412C276.014 211.412 277.007 210.753 277.6 209.435L281.783 210.827C281.152 212.313 280.197 213.464 278.917 214.281C277.638 215.08 276.205 215.479 274.62 215.479C272.347 215.479 270.437 214.764 268.89 213.334Z" fill="white"/>
<path d="M292.529 200.438C294.286 200.438 295.699 200.985 296.769 202.081C297.858 203.177 298.402 204.588 298.402 206.315V215.201H293.818V207.151C293.818 206.352 293.55 205.711 293.016 205.229C292.5 204.727 291.812 204.477 290.953 204.477C290.112 204.477 289.425 204.727 288.89 205.229C288.355 205.711 288.088 206.352 288.088 207.151V215.201H283.504V194.588H288.088V202.443C289.215 201.106 290.695 200.438 292.529 200.438Z" fill="white"/>
<g filter="url(#filter3_f_318_3222)">
<path d="M149.329 213.107L154.898 214.909C155.408 215.074 155.952 214.78 156.095 214.263L162.934 189.49C163.129 188.784 162.481 188.135 161.776 188.33L137.033 195.178C136.517 195.321 136.223 195.866 136.388 196.377L138.188 201.952M149.329 213.107L140.909 210.382M149.329 213.107L146.42 221.916C146.134 222.781 144.91 222.777 144.63 221.91L140.909 210.382M149.329 213.107L154.247 198.219C154.49 197.484 153.792 196.785 153.058 197.028L138.188 201.952M140.909 210.382L129.396 206.657C128.53 206.377 128.526 205.151 129.39 204.865L138.188 201.952M140.909 210.382L138.188 201.952" stroke="url(#paint3_linear_318_3222)" stroke-width="2.32428" stroke-linejoin="round"/>
</g>
<g filter="url(#filter4_f_318_3222)">
<path d="M149.329 213.107L154.898 214.909C155.408 215.074 155.952 214.78 156.095 214.263L162.934 189.49C163.129 188.784 162.481 188.135 161.776 188.33L137.033 195.178C136.517 195.321 136.223 195.866 136.388 196.377L138.188 201.952M149.329 213.107L140.909 210.382M149.329 213.107L146.42 221.916C146.134 222.781 144.91 222.777 144.63 221.91L140.909 210.382M149.329 213.107L154.247 198.219C154.49 197.484 153.792 196.785 153.058 197.028L138.188 201.952M140.909 210.382L129.396 206.657C128.53 206.377 128.526 205.151 129.39 204.865L138.188 201.952M140.909 210.382L138.188 201.952" stroke="url(#paint4_linear_318_3222)" stroke-width="2.32428" stroke-linejoin="round"/>
<path d="M149.329 213.107L154.898 214.909C155.408 215.074 155.952 214.78 156.095 214.263L162.934 189.49C163.129 188.784 162.481 188.135 161.776 188.33L137.033 195.178C136.517 195.321 136.223 195.866 136.388 196.377L138.188 201.952M149.329 213.107L140.909 210.382M149.329 213.107L146.42 221.916C146.134 222.781 144.91 222.777 144.63 221.91L140.909 210.382M149.329 213.107L154.247 198.219C154.49 197.484 153.792 196.785 153.058 197.028L138.188 201.952M140.909 210.382L129.396 206.657C128.53 206.377 128.526 205.151 129.39 204.865L138.188 201.952M140.909 210.382L138.188 201.952" stroke="#0038FF" stroke-width="2.32428" stroke-linejoin="round"/>
</g>
<g filter="url(#filter5_f_318_3222)">
<path d="M149.329 213.107L154.898 214.909C155.408 215.074 155.952 214.78 156.095 214.263L162.934 189.49C163.129 188.784 162.481 188.135 161.776 188.33L137.033 195.178C136.517 195.321 136.223 195.866 136.388 196.377L138.188 201.952M149.329 213.107L140.909 210.382M149.329 213.107L146.42 221.916C146.134 222.781 144.91 222.777 144.63 221.91L140.909 210.382M149.329 213.107L154.247 198.219C154.49 197.484 153.792 196.785 153.058 197.028L138.188 201.952M140.909 210.382L129.396 206.657C128.53 206.377 128.526 205.151 129.39 204.865L138.188 201.952M140.909 210.382L138.188 201.952" stroke="url(#paint5_linear_318_3222)" stroke-width="2.32428" stroke-linejoin="round"/>
</g>
<path d="M149.329 213.107L154.898 214.909C155.408 215.074 155.952 214.78 156.095 214.263L162.934 189.49C163.129 188.784 162.481 188.135 161.776 188.33L137.033 195.178C136.517 195.321 136.223 195.866 136.388 196.377L138.188 201.952M149.329 213.107L140.909 210.382M149.329 213.107L146.42 221.916C146.134 222.781 144.91 222.777 144.63 221.91L140.909 210.382M149.329 213.107L154.247 198.219C154.49 197.484 153.792 196.785 153.058 197.028L138.188 201.952M140.909 210.382L129.396 206.657C128.53 206.377 128.526 205.151 129.39 204.865L138.188 201.952M140.909 210.382L138.188 201.952" stroke="white" stroke-width="1.78367" stroke-linejoin="round"/>
<path d="M135.963 230.139H142.806V231.042H139.864V239.72H138.905V231.042H135.963V230.139ZM148.544 238.857C147.841 239.542 146.993 239.884 145.998 239.884C144.985 239.884 144.132 239.542 143.438 238.857C142.745 238.164 142.398 237.311 142.398 236.298C142.398 235.285 142.745 234.437 143.438 233.752C144.132 233.059 144.985 232.712 145.998 232.712C147.002 232.712 147.85 233.059 148.544 233.752C149.246 234.437 149.598 235.285 149.598 236.298C149.598 237.302 149.246 238.155 148.544 238.857ZM144.082 238.228C144.602 238.748 145.241 239.008 145.998 239.008C146.755 239.008 147.394 238.748 147.914 238.228C148.434 237.689 148.694 237.046 148.694 236.298C148.694 235.541 148.434 234.902 147.914 234.382C147.394 233.853 146.755 233.588 145.998 233.588C145.241 233.588 144.602 233.853 144.082 234.382C143.562 234.902 143.302 235.541 143.302 236.298C143.302 237.046 143.562 237.689 144.082 238.228ZM154.603 232.876V233.752H152.632V237.899C152.632 238.273 152.705 238.543 152.851 238.707C152.997 238.862 153.216 238.944 153.508 238.953C153.8 238.953 154.165 238.944 154.603 238.926V239.72C153.626 239.866 152.901 239.797 152.426 239.514C151.961 239.222 151.728 238.684 151.728 237.899V233.752H150.291V232.876H151.728V231.234L152.632 230.96V232.876H154.603ZM161.579 234.218V232.876H162.483V239.72H161.579V238.378C160.95 239.382 160.028 239.884 158.815 239.884C157.838 239.884 157.003 239.537 156.31 238.844C155.626 238.15 155.283 237.302 155.283 236.298C155.283 235.294 155.626 234.446 156.31 233.752C157.003 233.059 157.838 232.712 158.815 232.712C160.028 232.712 160.95 233.214 161.579 234.218ZM156.967 238.228C157.487 238.748 158.126 239.008 158.883 239.008C159.64 239.008 160.279 238.748 160.799 238.228C161.319 237.689 161.579 237.046 161.579 236.298C161.579 235.541 161.319 234.902 160.799 234.382C160.279 233.853 159.64 233.588 158.883 233.588C158.126 233.588 157.487 233.853 156.967 234.382C156.447 234.902 156.187 235.541 156.187 236.298C156.187 237.046 156.447 237.689 156.967 238.228ZM165.299 239.72H164.395V229.728H165.299V239.72ZM171.349 234.669C171.349 235.198 171.819 235.586 172.759 235.833C173.023 235.896 173.197 235.942 173.279 235.969C173.361 235.988 173.521 236.038 173.758 236.12C174.004 236.193 174.173 236.257 174.264 236.312C174.365 236.366 174.502 236.453 174.675 236.572C174.848 236.681 174.972 236.795 175.045 236.914C175.118 237.023 175.186 237.169 175.25 237.352C175.314 237.525 175.346 237.712 175.346 237.913C175.346 238.497 175.113 238.972 174.648 239.336C174.201 239.701 173.607 239.884 172.868 239.884C172.23 239.884 171.678 239.743 171.212 239.46C170.747 239.168 170.418 238.784 170.227 238.31L170.993 237.858C171.121 238.214 171.349 238.497 171.678 238.707C172.015 238.908 172.412 239.008 172.868 239.008C173.334 239.008 173.712 238.917 174.004 238.734C174.296 238.552 174.442 238.278 174.442 237.913C174.442 237.384 173.972 236.996 173.033 236.75C172.768 236.686 172.595 236.645 172.513 236.626C172.43 236.599 172.266 236.549 172.02 236.476C171.783 236.394 171.614 236.325 171.513 236.271C171.422 236.216 171.29 236.134 171.116 236.024C170.943 235.906 170.82 235.792 170.747 235.682C170.674 235.563 170.605 235.417 170.542 235.244C170.478 235.062 170.446 234.87 170.446 234.669C170.446 234.113 170.665 233.647 171.103 233.273C171.559 232.899 172.12 232.712 172.786 232.712C173.334 232.712 173.817 232.835 174.237 233.082C174.666 233.328 174.981 233.67 175.181 234.108L174.429 234.546C174.173 233.907 173.626 233.588 172.786 233.588C172.376 233.588 172.033 233.684 171.76 233.875C171.486 234.067 171.349 234.332 171.349 234.669ZM181.604 236.462V232.876H182.507V239.72H181.604V238.652C181.093 239.473 180.326 239.884 179.304 239.884C178.483 239.884 177.831 239.633 177.347 239.131C176.863 238.62 176.622 237.936 176.622 237.078V232.876H177.525V237.078C177.525 237.689 177.685 238.164 178.004 238.502C178.332 238.839 178.793 239.008 179.386 239.008C180.071 239.008 180.609 238.794 181.001 238.365C181.403 237.936 181.604 237.302 181.604 236.462ZM188.086 232.712C189.062 232.712 189.893 233.059 190.577 233.752C191.271 234.446 191.617 235.294 191.617 236.298C191.617 237.302 191.271 238.15 190.577 238.844C189.893 239.537 189.062 239.884 188.086 239.884C186.873 239.884 185.951 239.382 185.321 238.378V242.457H184.418V232.876H185.321V234.218C185.951 233.214 186.873 232.712 188.086 232.712ZM186.101 238.228C186.622 238.748 187.26 239.008 188.018 239.008C188.775 239.008 189.414 238.748 189.934 238.228C190.454 237.689 190.714 237.046 190.714 236.298C190.714 235.541 190.454 234.902 189.934 234.382C189.414 233.853 188.775 233.588 188.018 233.588C187.26 233.588 186.622 233.853 186.101 234.382C185.581 234.902 185.321 235.541 185.321 236.298C185.321 237.046 185.581 237.689 186.101 238.228ZM196.788 232.712C197.764 232.712 198.594 233.059 199.279 233.752C199.972 234.446 200.319 235.294 200.319 236.298C200.319 237.302 199.972 238.15 199.279 238.844C198.594 239.537 197.764 239.884 196.788 239.884C195.574 239.884 194.652 239.382 194.023 238.378V242.457H193.119V232.876H194.023V234.218C194.652 233.214 195.574 232.712 196.788 232.712ZM194.803 238.228C195.323 238.748 195.962 239.008 196.719 239.008C197.476 239.008 198.115 238.748 198.635 238.228C199.155 237.689 199.415 237.046 199.415 236.298C199.415 235.541 199.155 234.902 198.635 234.382C198.115 233.853 197.476 233.588 196.719 233.588C195.962 233.588 195.323 233.853 194.803 234.382C194.283 234.902 194.023 235.541 194.023 236.298C194.023 237.046 194.283 237.689 194.803 238.228ZM202.724 239.72H201.821V229.728H202.724V239.72ZM207.351 238.611L209.568 232.876H210.527L207.597 240.349C207.324 241.043 206.941 241.577 206.448 241.951C205.964 242.334 205.426 242.503 204.833 242.457V241.609C205.654 241.709 206.279 241.234 206.708 240.185L206.886 239.761L203.82 232.876H204.778L207.351 238.611ZM212.987 233.492C212.987 233.702 212.914 233.88 212.768 234.026C212.622 234.172 212.444 234.245 212.234 234.245C212.024 234.245 211.846 234.172 211.7 234.026C211.554 233.88 211.481 233.702 211.481 233.492C211.481 233.282 211.554 233.104 211.7 232.958C211.846 232.812 212.024 232.739 212.234 232.739C212.444 232.739 212.622 232.812 212.768 232.958C212.914 233.104 212.987 233.282 212.987 233.492ZM212.987 239.104C212.987 239.314 212.914 239.492 212.768 239.638C212.622 239.784 212.444 239.857 212.234 239.857C212.024 239.857 211.846 239.784 211.7 239.638C211.554 239.492 211.481 239.314 211.481 239.104C211.481 238.894 211.554 238.716 211.7 238.57C211.846 238.424 212.024 238.351 212.234 238.351C212.444 238.351 212.622 238.424 212.768 238.57C212.914 238.716 212.987 238.894 212.987 239.104ZM217.442 231.015L219.974 230.139H220.795V239.72H219.837V231.193L217.688 231.836L217.442 231.015ZM228.868 238.543C228.239 239.437 227.349 239.884 226.199 239.884C225.059 239.884 224.164 239.437 223.517 238.543C222.887 237.639 222.572 236.435 222.572 234.929C222.572 233.415 222.887 232.215 223.517 231.33C224.164 230.426 225.059 229.975 226.199 229.975C227.349 229.975 228.239 230.426 228.868 231.33C229.507 232.215 229.826 233.415 229.826 234.929C229.826 236.444 229.507 237.648 228.868 238.543ZM224.228 237.899C224.712 238.602 225.369 238.953 226.199 238.953C227.039 238.953 227.691 238.602 228.156 237.899C228.631 237.206 228.868 236.216 228.868 234.929C228.868 233.643 228.631 232.653 228.156 231.959C227.691 231.257 227.039 230.905 226.199 230.905C225.369 230.905 224.712 231.257 224.228 231.959C223.763 232.662 223.53 233.652 223.53 234.929C223.53 236.207 223.763 237.197 224.228 237.899ZM237.489 238.543C236.86 239.437 235.97 239.884 234.82 239.884C233.68 239.884 232.786 239.437 232.138 238.543C231.508 237.639 231.193 236.435 231.193 234.929C231.193 233.415 231.508 232.215 232.138 231.33C232.786 230.426 233.68 229.975 234.82 229.975C235.97 229.975 236.86 230.426 237.489 231.33C238.128 232.215 238.447 233.415 238.447 234.929C238.447 236.444 238.128 237.648 237.489 238.543ZM232.85 237.899C233.333 238.602 233.99 238.953 234.82 238.953C235.66 238.953 236.312 238.602 236.778 237.899C237.252 237.206 237.489 236.216 237.489 234.929C237.489 233.643 237.252 232.653 236.778 231.959C236.312 231.257 235.66 230.905 234.82 230.905C233.99 230.905 233.333 231.257 232.85 231.959C232.384 232.662 232.151 233.652 232.151 234.929C232.151 236.207 232.384 237.197 232.85 237.899ZM241.043 239.104C241.043 239.314 240.97 239.492 240.824 239.638C240.678 239.784 240.5 239.857 240.29 239.857C240.08 239.857 239.902 239.784 239.756 239.638C239.61 239.492 239.537 239.314 239.537 239.104C239.537 238.894 239.61 238.716 239.756 238.57C239.902 238.424 240.08 238.351 240.29 238.351C240.5 238.351 240.678 238.424 240.824 238.57C240.97 238.716 241.043 238.894 241.043 239.104ZM248.436 238.543C247.807 239.437 246.917 239.884 245.767 239.884C244.627 239.884 243.733 239.437 243.085 238.543C242.455 237.639 242.14 236.435 242.14 234.929C242.14 233.415 242.455 232.215 243.085 231.33C243.733 230.426 244.627 229.975 245.767 229.975C246.917 229.975 247.807 230.426 248.436 231.33C249.075 232.215 249.394 233.415 249.394 234.929C249.394 236.444 249.075 237.648 248.436 238.543ZM243.796 237.899C244.28 238.602 244.937 238.953 245.767 238.953C246.607 238.953 247.259 238.602 247.725 237.899C248.199 237.206 248.436 236.216 248.436 234.929C248.436 233.643 248.199 232.653 247.725 231.959C247.259 231.257 246.607 230.905 245.767 230.905C244.937 230.905 244.28 231.257 243.796 231.959C243.331 232.662 243.098 233.652 243.098 234.929C243.098 236.207 243.331 237.197 243.796 237.899ZM257.058 238.543C256.428 239.437 255.538 239.884 254.389 239.884C253.248 239.884 252.354 239.437 251.706 238.543C251.076 237.639 250.762 236.435 250.762 234.929C250.762 233.415 251.076 232.215 251.706 231.33C252.354 230.426 253.248 229.975 254.389 229.975C255.538 229.975 256.428 230.426 257.058 231.33C257.696 232.215 258.016 233.415 258.016 234.929C258.016 236.444 257.696 237.648 257.058 238.543ZM252.418 237.899C252.901 238.602 253.558 238.953 254.389 238.953C255.228 238.953 255.88 238.602 256.346 237.899C256.82 237.206 257.058 236.216 257.058 234.929C257.058 233.643 256.82 232.653 256.346 231.959C255.88 231.257 255.228 230.905 254.389 230.905C253.558 230.905 252.901 231.257 252.418 231.959C251.952 232.662 251.72 233.652 251.72 234.929C251.72 236.207 251.952 237.197 252.418 237.899ZM265.679 238.543C265.049 239.437 264.16 239.884 263.01 239.884C261.869 239.884 260.975 239.437 260.327 238.543C259.698 237.639 259.383 236.435 259.383 234.929C259.383 233.415 259.698 232.215 260.327 231.33C260.975 230.426 261.869 229.975 263.01 229.975C264.16 229.975 265.049 230.426 265.679 231.33C266.318 232.215 266.637 233.415 266.637 234.929C266.637 236.444 266.318 237.648 265.679 238.543ZM261.039 237.899C261.522 238.602 262.179 238.953 263.01 238.953C263.849 238.953 264.502 238.602 264.967 237.899C265.442 237.206 265.679 236.216 265.679 234.929C265.679 233.643 265.442 232.653 264.967 231.959C264.502 231.257 263.849 230.905 263.01 230.905C262.179 230.905 261.522 231.257 261.039 231.959C260.574 232.662 260.341 233.652 260.341 234.929C260.341 236.207 260.574 237.197 261.039 237.899ZM269.232 239.104C269.232 239.314 269.159 239.492 269.013 239.638C268.867 239.784 268.689 239.857 268.479 239.857C268.269 239.857 268.091 239.784 267.945 239.638C267.799 239.492 267.726 239.314 267.726 239.104C267.726 238.894 267.799 238.716 267.945 238.57C268.091 238.424 268.269 238.351 268.479 238.351C268.689 238.351 268.867 238.424 269.013 238.57C269.159 238.716 269.232 238.894 269.232 239.104ZM276.626 238.543C275.996 239.437 275.106 239.884 273.957 239.884C272.816 239.884 271.922 239.437 271.274 238.543C270.645 237.639 270.33 236.435 270.33 234.929C270.33 233.415 270.645 232.215 271.274 231.33C271.922 230.426 272.816 229.975 273.957 229.975C275.106 229.975 275.996 230.426 276.626 231.33C277.264 232.215 277.584 233.415 277.584 234.929C277.584 236.444 277.264 237.648 276.626 238.543ZM271.986 237.899C272.469 238.602 273.126 238.953 273.957 238.953C274.796 238.953 275.449 238.602 275.914 237.899C276.388 237.206 276.626 236.216 276.626 234.929C276.626 233.643 276.388 232.653 275.914 231.959C275.449 231.257 274.796 230.905 273.957 230.905C273.126 230.905 272.469 231.257 271.986 231.959C271.52 232.662 271.288 233.652 271.288 234.929C271.288 236.207 271.52 237.197 271.986 237.899ZM285.247 238.543C284.617 239.437 283.728 239.884 282.578 239.884C281.437 239.884 280.543 239.437 279.895 238.543C279.266 237.639 278.951 236.435 278.951 234.929C278.951 233.415 279.266 232.215 279.895 231.33C280.543 230.426 281.437 229.975 282.578 229.975C283.728 229.975 284.617 230.426 285.247 231.33C285.886 232.215 286.205 233.415 286.205 234.929C286.205 236.444 285.886 237.648 285.247 238.543ZM280.607 237.899C281.091 238.602 281.748 238.953 282.578 238.953C283.417 238.953 284.07 238.602 284.535 237.899C285.01 237.206 285.247 236.216 285.247 234.929C285.247 233.643 285.01 232.653 284.535 231.959C284.07 231.257 283.417 230.905 282.578 230.905C281.748 230.905 281.091 231.257 280.607 231.959C280.142 232.662 279.909 233.652 279.909 234.929C279.909 236.207 280.142 237.197 280.607 237.899ZM293.868 238.543C293.239 239.437 292.349 239.884 291.199 239.884C290.059 239.884 289.164 239.437 288.517 238.543C287.887 237.639 287.572 236.435 287.572 234.929C287.572 233.415 287.887 232.215 288.517 231.33C289.164 230.426 290.059 229.975 291.199 229.975C292.349 229.975 293.239 230.426 293.868 231.33C294.507 232.215 294.826 233.415 294.826 234.929C294.826 236.444 294.507 237.648 293.868 238.543ZM289.228 237.899C289.712 238.602 290.369 238.953 291.199 238.953C292.039 238.953 292.691 238.602 293.156 237.899C293.631 237.206 293.868 236.216 293.868 234.929C293.868 233.643 293.631 232.653 293.156 231.959C292.691 231.257 292.039 230.905 291.199 230.905C290.369 230.905 289.712 231.257 289.228 231.959C288.763 232.662 288.53 233.652 288.53 234.929C288.53 236.207 288.763 237.197 289.228 237.899Z" fill="white"/>
<path d="M217.587 53.0077C260.536 53.4259 301.585 70.7791 331.81 101.295C362.035 131.812 378.994 173.025 379 215.976C379.006 258.927 362.06 300.145 331.844 330.67C301.628 361.195 260.584 378.561 217.635 378.992L217.39 354.543C253.897 354.177 288.783 339.416 314.467 313.47C340.151 287.523 354.555 252.488 354.55 215.979C354.545 179.471 340.13 144.44 314.438 118.501C288.747 92.5623 253.856 77.812 217.349 77.4566L217.587 53.0077Z" fill="#C112FF"/>
<path d="M214.347 378.992C181.096 378.654 148.745 368.156 121.632 348.905L135.788 328.969C158.833 345.333 186.332 354.256 214.595 354.543L214.347 378.992Z" fill="#0055FF"/>
<path d="M117.133 349.484C96.3004 334.055 79.3688 313.964 67.6924 290.818C56.016 267.673 49.919 242.116 49.8891 216.192C49.8592 190.268 55.8973 164.697 67.5203 141.524C79.1433 118.352 96.0286 98.2218 116.825 82.7442L136.66 109.395C120.023 121.777 106.515 137.882 97.2162 156.42C87.9178 174.957 83.0873 195.414 83.1112 216.153C83.1351 236.893 88.0127 257.338 97.3539 275.855C106.695 294.371 120.24 310.444 136.906 322.788L117.133 349.484Z" fill="#19DC5D"/>
<path d="M121.32 83.3173C148.5 63.9218 180.982 53.3418 214.371 53.0082L214.616 77.4569C186.234 77.7405 158.625 86.7335 135.522 103.22L121.32 83.3173Z" fill="#FFA012"/>
<path d="M253.813 65L257.186 66.0555C258.355 66.4215 259.194 67.1312 259.704 68.1844C260.216 69.2297 260.275 70.3348 259.881 71.4998C259.49 72.6569 258.765 73.5211 257.707 74.0925C256.654 74.6481 255.542 74.7429 254.373 74.3768L251 73.3213L253.813 65ZM252.503 72.6348L254.726 73.3307C255.608 73.6065 256.429 73.5349 257.19 73.1158C257.953 72.6888 258.484 72.0354 258.781 71.1557C259.079 70.276 259.049 69.4474 258.693 68.6698C258.333 67.9002 257.713 67.3774 256.832 67.1016L254.608 66.4057L252.503 72.6348Z" fill="white"/>
<path d="M267.025 78.8206L265.827 78.3705L265.879 76.2831L262.067 74.8508L260.635 76.4198L259.437 75.9696L265.904 69.0054L267.174 69.4829L267.025 78.8206ZM266.008 70.5344L262.865 73.9833L265.903 75.1246L266.008 70.5344Z" fill="white"/>
<path d="M269.712 75.1297C270.265 73.9803 271.145 73.1925 272.353 72.7663C273.564 72.3326 274.767 72.3819 275.961 72.9143C277.156 73.4467 277.973 74.2976 278.412 75.4669C278.863 76.6322 278.811 77.7896 278.258 78.939C277.708 80.0808 276.824 80.8669 275.605 81.2971C274.394 81.7309 273.191 81.6816 271.997 81.1491C270.802 80.6167 269.985 79.7659 269.546 78.5965C269.11 77.4196 269.166 76.264 269.712 75.1297ZM277.162 78.4503C277.584 77.5732 277.631 76.7031 277.302 75.84C276.992 74.9764 276.381 74.3415 275.47 73.9351C274.566 73.5323 273.664 73.493 272.763 73.8172C271.87 74.1449 271.215 74.7435 270.796 75.6131C270.381 76.4752 270.331 77.3435 270.645 78.2182C270.974 79.0812 271.59 79.7141 272.494 80.117C273.405 80.5233 274.302 80.5646 275.183 80.241C276.087 79.9093 276.747 79.3124 277.162 78.4503Z" fill="white"/>
<path d="M284.682 77.2351L290.394 80.3392L289.832 81.2971L287.491 80.0247L283.581 86.6863L282.54 86.1208L286.45 79.4592L284.119 78.193L284.682 77.2351Z" fill="white"/>
<path d="M293.004 92.2339L291.876 91.5421L292.026 87.6621L290.218 86.5539L288.347 89.3794L287.328 88.7548L292.215 81.3748L295.283 83.2554C295.94 83.6584 296.354 84.2281 296.523 84.9645C296.698 85.6939 296.575 86.3748 296.156 87.0074C295.84 87.4854 295.402 87.8293 294.842 88.0393C294.27 88.2519 293.706 88.2967 293.151 88.1737L293.004 92.2339ZM294.675 84.1726L292.626 82.9166L290.804 85.6683L292.853 86.9243C293.233 87.1572 293.643 87.2206 294.083 87.1147C294.53 87.0133 294.882 86.7693 295.137 86.3828C295.393 85.9962 295.472 85.59 295.374 85.1643C295.288 84.736 295.055 84.4055 294.675 84.1726Z" fill="white"/>
<path d="M297.619 90.598L295.952 92.8625L299.397 95.211L298.737 96.1086L294.305 93.0882L299.562 85.9478L303.94 88.9321L303.28 89.8297L299.887 87.5175L298.273 89.7106L301.4 91.8422L300.747 92.7297L297.619 90.598Z" fill="white"/>
<path d="M306.004 101.547L304.994 100.78L305.678 98.7984L302.468 96.3566L300.622 97.4544L299.613 96.687L307.913 91.8454L308.983 92.6593L306.004 101.547ZM307.548 93.3371L303.495 95.7514L306.053 97.6971L307.548 93.3371Z" fill="white"/>
<path d="M308.972 104.261C308.335 103.722 307.917 103.119 307.719 102.452C307.533 101.784 307.581 101.12 307.862 100.459L309.037 100.687C308.571 101.702 308.816 102.614 309.773 103.423C310.234 103.814 310.672 104.023 311.085 104.05C311.504 104.083 311.857 103.943 312.143 103.63C312.423 103.324 312.514 102.985 312.415 102.613C312.326 102.282 312.064 101.766 311.631 101.067L311.166 100.307C311.074 100.13 310.96 99.8891 310.823 99.5846C310.698 99.2794 310.635 99.0264 310.634 98.8257C310.622 98.2832 310.814 97.796 311.208 97.3641C311.734 96.7883 312.354 96.5137 313.068 96.5403C313.793 96.5545 314.455 96.8147 315.053 97.3209C315.587 97.772 315.938 98.2965 316.107 98.8943C316.276 99.492 316.258 100.098 316.053 100.713L314.906 100.492C315.231 99.5685 315.023 98.7931 314.281 98.1658C313.911 97.8522 313.531 97.6867 313.143 97.6694C312.756 97.6521 312.425 97.7937 312.15 98.0941C311.887 98.382 311.794 98.6919 311.872 99.0237C311.95 99.3672 312.178 99.8373 312.555 100.434L312.844 100.894C312.991 101.163 313.071 101.308 313.085 101.331C313.224 101.582 313.357 101.878 313.485 102.219C313.574 102.461 313.619 102.754 313.617 103.096C313.644 103.508 313.458 103.933 313.058 104.371C312.532 104.947 311.894 105.223 311.143 105.198C310.392 105.162 309.668 104.85 308.972 104.261Z" fill="white"/>
<path d="M314.745 105.06L318.964 100.899L319.828 101.711L315.646 105.836C315.192 106.283 314.972 106.763 314.985 107.276C315.004 107.794 315.264 108.289 315.766 108.761C316.268 109.232 316.786 109.467 317.319 109.467C317.858 109.472 318.354 109.251 318.808 108.804L322.99 104.679L323.846 105.482L319.627 109.643C318.937 110.323 318.164 110.65 317.306 110.625C316.448 110.6 315.66 110.25 314.941 109.575C314.215 108.894 313.829 108.141 313.782 107.317C313.734 106.492 314.055 105.74 314.745 105.06Z" fill="white"/>
<path d="M323.316 117.781L322.411 116.832L323.598 113.121L322.149 111.602L319.583 113.867L318.766 113.01L325.467 107.094L327.927 109.673C328.454 110.226 328.7 110.879 328.667 111.632C328.639 112.38 328.338 113.008 327.764 113.515C327.33 113.898 326.814 114.122 326.217 114.185C325.607 114.249 325.051 114.152 324.547 113.895L323.316 117.781ZM327.094 110.408L325.451 108.686L322.953 110.892L324.595 112.614C324.9 112.933 325.279 113.097 325.732 113.104C326.191 113.117 326.596 112.968 326.947 112.658C327.298 112.348 327.483 111.976 327.503 111.54C327.535 111.105 327.398 110.728 327.094 110.408Z" fill="white"/>
<path d="M335.042 117.662L335.899 118.667L329.668 119.578L326.826 121.823L326.06 120.924L328.911 118.672L331.052 112.986L331.91 113.991L330.182 118.428L335.042 117.662Z" fill="white"/>
<path d="M333.904 122.74C333.763 122.561 333.707 122.361 333.739 122.139C333.77 121.917 333.878 121.738 334.064 121.602C334.251 121.465 334.459 121.412 334.689 121.442C334.92 121.472 335.106 121.577 335.248 121.756C335.395 121.941 335.45 122.142 335.414 122.357C335.382 122.579 335.274 122.758 335.088 122.894C334.902 123.031 334.693 123.084 334.463 123.054C334.237 123.03 334.051 122.926 333.904 122.74ZM329.842 125.717C329.701 125.538 329.645 125.337 329.677 125.115C329.708 124.893 329.816 124.714 330.002 124.578C330.189 124.442 330.397 124.388 330.627 124.418C330.858 124.448 331.044 124.553 331.186 124.732C331.333 124.918 331.388 125.118 331.352 125.333C331.32 125.555 331.212 125.734 331.026 125.871C330.84 126.007 330.631 126.06 330.401 126.03C330.175 126.007 329.989 125.902 329.842 125.717Z" fill="white"/>
<path d="M340.621 132.28C340.683 132.731 340.627 133.153 340.452 133.546C340.277 133.939 339.992 134.263 339.596 134.517C338.991 134.906 338.341 135.028 337.647 134.883C336.952 134.738 336.401 134.371 335.992 133.782L333.813 130.642L341.375 125.782L343.396 128.693C343.795 129.268 343.931 129.877 343.804 130.52C343.682 131.169 343.33 131.682 342.746 132.057C342.069 132.492 341.361 132.566 340.621 132.28ZM342.456 129.297L341.106 127.353L338.794 128.839L340.144 130.783C340.355 131.088 340.645 131.272 341.013 131.337C341.38 131.401 341.726 131.329 342.05 131.121C342.367 130.917 342.562 130.636 342.637 130.278C342.723 129.922 342.662 129.595 342.456 129.297ZM335.424 131.005L336.932 133.178C337.158 133.503 337.467 133.701 337.858 133.77C338.25 133.839 338.619 133.762 338.964 133.54C339.303 133.323 339.511 133.023 339.59 132.642C339.679 132.274 339.61 131.927 339.384 131.602L337.876 129.429L335.424 131.005Z" fill="white"/>
<path d="M342.1 134.706C343.235 134.065 344.425 133.9 345.67 134.212C346.922 134.519 347.881 135.22 348.547 136.312C349.214 137.405 349.381 138.552 349.049 139.754C348.73 140.958 348.002 141.881 346.867 142.522C345.739 143.159 344.547 143.32 343.29 143.005C342.038 142.698 341.079 141.998 340.413 140.905C339.746 139.813 339.579 138.666 339.911 137.464C340.25 136.258 340.979 135.338 342.1 134.706ZM346.255 141.52C347.122 141.03 347.675 140.341 347.916 139.451C348.173 138.572 348.047 137.715 347.539 136.881C347.035 136.055 346.317 135.528 345.385 135.3C344.457 135.08 343.564 135.213 342.705 135.698C341.853 136.178 341.297 136.864 341.037 137.755C340.797 138.645 340.928 139.503 341.432 140.329C341.941 141.163 342.653 141.689 343.569 141.906C344.508 142.129 345.404 142 346.255 141.52Z" fill="white"/>
<path d="M346.295 144.59L351.684 141.963L352.23 143L346.887 145.605C346.307 145.887 345.938 146.273 345.778 146.762C345.622 147.258 345.702 147.808 346.019 148.41C346.336 149.012 346.747 149.396 347.251 149.561C347.76 149.733 348.303 149.679 348.883 149.396L354.226 146.792L354.766 147.818L349.377 150.445C348.496 150.874 347.654 150.943 346.85 150.653C346.047 150.363 345.418 149.786 344.964 148.924C344.506 148.054 344.393 147.222 344.625 146.427C344.857 145.632 345.414 145.019 346.295 144.59Z" fill="white"/>
<path d="M351.777 157.336L357.985 154.709L358.471 155.773L350.147 159.296L349.754 158.438L354.091 151.686L347.871 154.318L347.385 153.254L355.709 149.731L356.102 150.59L351.777 157.336Z" fill="white"/>
<path d="M359.269 157.649L361.579 163.558L360.509 163.945L359.562 161.523L352.12 164.216L351.699 163.14L359.141 160.447L358.199 158.036L359.269 157.649Z" fill="white"/>
<path d="M363.843 170.186L364.258 171.423L358.113 170.074L354.614 171.16L354.243 170.054L357.755 168.963L361.912 164.428L362.327 165.665L359.03 169.185L363.843 170.186Z" fill="white"/>
<path d="M357.271 175.184L357.625 176.387L354.357 176.431L354.092 175.529L357.271 175.184Z" fill="white"/>
<path d="M368.116 186.764L368.394 188.049L359.492 189.835L359.248 188.709L366.204 187.313L360.752 185.483L360.72 185.336L364.945 181.564L358.001 182.958L357.755 181.82L366.657 180.033L366.936 181.318L362.821 184.991L368.116 186.764Z" fill="white"/>
<path d="M360.844 198.506L360.657 197.282L362.567 196.291L361.97 192.395L359.844 191.976L359.657 190.752L369.148 192.705L369.347 194.003L360.844 198.506ZM367.82 193.55L363.149 192.633L363.624 195.737L367.82 193.55Z" fill="white"/>
<path d="M361.57 206.103L361.449 204.821L364.733 202.564L364.54 200.51L361.072 200.812L360.963 199.654L370.02 198.866L370.348 202.351C370.419 203.098 370.203 203.762 369.701 204.341C369.207 204.919 368.572 205.242 367.796 205.31C367.209 205.361 366.659 205.238 366.144 204.939C365.619 204.634 365.238 204.232 365 203.734L361.57 206.103ZM369.223 202.449L369.004 200.121L365.627 200.416L365.846 202.744C365.886 203.175 366.084 203.526 366.44 203.796C366.797 204.075 367.213 204.194 367.687 204.152C368.161 204.111 368.544 203.923 368.834 203.588C369.134 203.261 369.263 202.881 369.223 202.449Z" fill="white"/>
<path d="M366.435 210L361.917 214.155L361.862 212.731L366.076 208.8L361.714 208.958L361.668 207.796L370.756 207.467L370.801 208.629L366.699 208.777L370.944 212.276L371 213.7L366.435 210Z" fill="white"/>
<path d="M365.918 216.587L363.034 216.556L362.986 220.618L361.843 220.606L361.905 215.381L370.998 215.481L370.937 220.643L369.794 220.63L369.841 216.631L367.048 216.6L367.004 220.287L365.874 220.275L365.918 216.587Z" fill="white"/>
<path d="M370.9 222.169L370.501 228.47L369.36 228.403L369.523 225.82L361.587 225.355L361.66 224.207L369.596 224.672L369.758 222.102L370.9 222.169Z" fill="white"/>
<path d="M361.263 229.449L370.316 230.28L370.201 231.438L361.148 230.606L361.263 229.449Z" fill="white"/>
<path d="M362.481 238.417L369.199 239.31L369.033 240.461L360.025 239.264L360.158 238.335L367.529 234.772L360.798 233.877L360.963 232.726L369.972 233.923L369.839 234.852L362.481 238.417Z" fill="white"/>
<path d="M363.286 246.177L362.388 250.466L361.853 250.363C360.69 250.137 359.802 249.566 359.19 248.648C358.587 247.732 358.418 246.641 358.683 245.375C358.956 244.068 359.629 243.071 360.7 242.386C361.786 241.713 362.97 241.5 364.252 241.749C365.534 241.997 366.536 242.633 367.259 243.657C367.979 244.69 368.204 245.851 367.934 247.142C367.77 247.926 367.418 248.615 366.879 249.207C366.338 249.808 365.713 250.218 365.005 250.438L364.611 249.342C365.146 249.19 365.611 248.893 366.003 248.451C366.405 248.01 366.667 247.496 366.79 246.908C366.997 245.919 366.83 245.049 366.29 244.298C365.75 243.539 364.993 243.065 364.016 242.876C363.04 242.687 362.15 242.842 361.348 243.341C360.552 243.85 360.049 244.607 359.839 245.611C359.663 246.453 359.732 247.18 360.045 247.794C360.365 248.417 360.869 248.859 361.557 249.119L362.216 245.97L363.286 246.177Z" fill="white"/>
<path d="M358.729 251.833L358.419 253.047L355.555 251.532L355.787 250.622L358.729 251.833Z" fill="white"/>
<path d="M358.982 260.733L356.229 259.905L354.969 263.783L353.878 263.455L355.498 258.468L364.178 261.078L362.578 266.005L361.486 265.677L362.726 261.859L360.06 261.058L358.917 264.577L357.839 264.253L358.982 260.733Z" fill="white"/>
<path d="M351.68 268.846C352.164 267.596 352.988 266.722 354.152 266.224C355.307 265.722 356.51 265.696 357.76 266.144C359.009 266.592 359.9 267.37 360.433 268.477C360.973 269.587 361.001 270.767 360.517 272.016C360.23 272.758 359.777 273.378 359.159 273.877C358.54 274.375 357.846 274.687 357.077 274.811L356.873 273.657C357.434 273.592 357.944 273.374 358.401 273.005C358.864 272.646 359.204 272.185 359.422 271.623C359.791 270.671 359.774 269.784 359.371 268.963C358.976 268.146 358.3 267.565 357.342 267.222C356.393 266.881 355.49 266.895 354.636 267.265C353.773 267.631 353.157 268.29 352.787 269.243C352.57 269.805 352.509 270.366 352.607 270.926C352.709 271.496 352.946 271.982 353.318 272.382L352.391 273.13C351.891 272.559 351.573 271.889 351.436 271.12C351.305 270.361 351.386 269.603 351.68 268.846Z" fill="white"/>
<path d="M354.256 275.095C355.457 275.614 356.286 276.452 356.742 277.609C357.207 278.769 357.17 279.927 356.63 281.083C356.091 282.238 355.216 283.034 354.006 283.47C352.8 283.917 351.597 283.881 350.396 283.362C349.203 282.846 348.376 282.004 347.915 280.837C347.45 279.676 347.487 278.519 348.027 277.363C348.566 276.208 349.441 275.412 350.651 274.976C351.869 274.543 353.071 274.583 354.256 275.095ZM350.891 282.302C351.807 282.698 352.712 282.733 353.605 282.406C354.499 282.098 355.152 281.503 355.564 280.622C355.972 279.747 356.002 278.879 355.655 278.016C355.304 277.161 354.675 276.537 353.766 276.144C352.866 275.755 351.963 275.716 351.057 276.028C350.164 276.355 349.514 276.955 349.105 277.829C348.694 278.711 348.661 279.574 349.007 280.418C349.363 281.284 349.99 281.912 350.891 282.302Z" fill="white"/>
<path d="M344.064 285.223C344.456 284.498 344.965 283.964 345.59 283.62C346.22 283.286 346.901 283.172 347.636 283.277L347.686 284.429C346.551 284.236 345.689 284.683 345.101 285.77C344.817 286.295 344.711 286.754 344.782 287.146C344.849 287.546 345.074 287.842 345.459 288.034C345.835 288.223 346.199 288.227 346.551 288.046C346.863 287.883 347.321 287.515 347.923 286.943L348.578 286.327C348.735 286.199 348.951 286.035 349.226 285.834C349.504 285.644 349.744 285.525 349.946 285.476C350.491 285.335 351.029 285.398 351.559 285.663C352.266 286.017 352.691 286.531 352.835 287.204C352.994 287.885 352.889 288.565 352.522 289.245C352.194 289.851 351.748 290.305 351.186 290.606C350.623 290.906 350.007 291.035 349.337 290.991L349.286 289.866C350.296 289.949 351.029 289.569 351.484 288.726C351.712 288.305 351.788 287.911 351.713 287.544C351.638 287.178 351.416 286.902 351.047 286.718C350.694 286.541 350.359 286.528 350.043 286.68C349.715 286.835 349.295 287.16 348.783 287.655L348.387 288.035C348.151 288.236 348.024 288.346 348.004 288.365C347.784 288.555 347.517 288.75 347.204 288.95C346.981 289.092 346.696 289.204 346.35 289.284C345.941 289.408 345.468 289.335 344.93 289.066C344.223 288.712 343.792 288.182 343.638 287.475C343.494 286.765 343.637 286.014 344.064 285.223Z" fill="white"/>
<path d="M346.984 298.394L346.298 299.514L343.269 294.195L340.103 292.397L340.717 291.396L343.894 293.2L350.18 293.183L349.493 294.303L344.569 294.265L346.984 298.394Z" fill="white"/>
<path d="M336.111 298.22C336.578 297.538 337.141 297.056 337.8 296.775C338.461 296.506 339.151 296.46 339.871 296.636L339.798 297.787C338.689 297.484 337.784 297.843 337.084 298.867C336.746 299.361 336.591 299.806 336.62 300.204C336.644 300.608 336.837 300.925 337.198 301.154C337.553 301.379 337.914 301.418 338.284 301.273C338.612 301.142 339.106 300.821 339.766 300.312L340.483 299.763C340.653 299.652 340.886 299.509 341.18 299.337C341.477 299.176 341.729 299.081 341.935 299.052C342.492 298.966 343.02 299.081 343.519 299.397C344.184 299.818 344.553 300.371 344.624 301.055C344.71 301.748 344.533 302.415 344.095 303.055C343.705 303.626 343.213 304.033 342.621 304.276C342.029 304.52 341.403 304.587 340.742 304.477L340.811 303.354C341.806 303.535 342.576 303.23 343.119 302.436C343.39 302.039 343.508 301.655 343.472 301.283C343.436 300.911 343.245 300.615 342.898 300.395C342.565 300.184 342.233 300.139 341.902 300.258C341.56 300.381 341.107 300.663 340.545 301.105L340.111 301.444C339.855 301.621 339.717 301.717 339.695 301.734C339.456 301.901 339.17 302.069 338.837 302.237C338.6 302.357 338.305 302.439 337.952 302.485C337.532 302.568 337.069 302.449 336.563 302.128C335.897 301.707 335.525 301.137 335.446 300.418C335.38 299.697 335.601 298.965 336.111 298.22Z" fill="white"/>
<path d="M341.261 306.832L337.389 311.928L336.466 311.278L338.053 309.19L331.635 304.674L332.341 303.746L338.759 308.261L340.338 306.183L341.261 306.832Z" fill="white"/>
<path d="M331.537 311.182L329.294 309.437L326.639 312.595L325.75 311.904L329.165 307.841L336.236 313.344L332.862 317.358L331.973 316.666L334.587 313.556L332.416 311.866L330.005 314.733L329.127 314.049L331.537 311.182Z" fill="white"/>
<path d="M326.617 324.142L325.701 325.114L318.961 319.24L319.764 318.388L325.031 322.978L323.359 317.659L323.464 317.548L329.12 318.615L323.863 314.033L324.674 313.172L331.414 319.046L330.498 320.019L324.991 318.98L326.617 324.142Z" fill="white"/>
<path d="M317.457 332.803L316.675 332L319.612 329.349L317.595 327.28L314.781 329.82L313.999 329.017L316.813 326.477L314.173 323.769L315.054 322.974L321.276 329.356L317.457 332.803Z" fill="white"/>
<path d="M311.833 329.876L315.734 334.314L314.812 335.065L310.944 330.665C310.525 330.188 310.049 329.931 309.518 329.894C308.98 329.862 308.443 330.065 307.907 330.501C307.371 330.937 307.078 331.41 307.028 331.92C306.971 332.436 307.152 332.932 307.571 333.41L311.439 337.81L310.526 338.552L306.625 334.114C305.988 333.389 305.723 332.616 305.831 331.797C305.939 330.978 306.377 330.256 307.144 329.632C307.917 329.002 308.733 328.704 309.59 328.738C310.448 328.771 311.195 329.151 311.833 329.876Z" fill="white"/>
<path d="M300.214 337.955L304.302 343.161L303.339 343.862L297.856 336.881L298.633 336.316L306.461 338.818L302.364 333.602L303.328 332.901L308.811 339.882L308.034 340.448L300.214 337.955Z" fill="white"/>
<path d="M301.079 345.432L298.122 347.317C297.097 347.971 295.997 348.162 294.824 347.891C293.654 347.627 292.718 346.984 292.015 345.963C291.317 344.948 291.064 343.865 291.257 342.712C291.46 341.573 292.074 340.677 293.099 340.023L296.055 338.138L301.079 345.432ZM295.68 339.697L293.73 340.94C292.958 341.433 292.506 342.096 292.373 342.93C292.246 343.771 292.448 344.577 292.979 345.348C293.51 346.119 294.203 346.612 295.057 346.827C295.907 347.035 296.718 346.893 297.491 346.4L299.44 345.158L295.68 339.697Z" fill="white"/>
<path d="M288.281 344.506L287.17 345.154L286.255 342.136L287.088 341.65L288.281 344.506Z" fill="white"/>
<path d="M282.507 350.682L281.157 348.23L277.426 350.131L276.891 349.159L281.69 346.714L285.946 354.446L281.205 356.863L280.67 355.891L284.344 354.018L283.036 351.643L279.649 353.369L279.12 352.408L282.507 350.682Z" fill="white"/>
<path d="M279.785 357.558L273.849 360.245L273.362 359.25L275.795 358.148L272.41 351.226L273.491 350.736L276.877 357.659L279.298 356.562L279.785 357.558Z" fill="white"/>
<path d="M264.732 354.257C266.016 353.756 267.243 353.75 268.411 354.238C269.576 354.719 270.409 355.554 270.911 356.743C271.412 357.932 271.418 359.09 270.93 360.216C270.445 361.349 269.56 362.166 268.276 362.667C267.514 362.965 266.733 363.063 265.933 362.961C265.133 362.86 264.425 362.578 263.81 362.117L264.556 361.192C264.986 361.546 265.497 361.76 266.089 361.835C266.676 361.92 267.259 361.85 267.837 361.625C268.816 361.243 269.484 360.632 269.84 359.791C270.199 358.958 270.187 358.086 269.803 357.175C269.422 356.272 268.801 355.641 267.941 355.285C267.077 354.92 266.155 354.929 265.176 355.311C264.598 355.537 264.128 355.873 263.765 356.32C263.397 356.779 263.186 357.275 263.131 357.809L261.931 357.657C262.03 356.916 262.328 356.238 262.826 355.621C263.318 355.016 263.953 354.561 264.732 354.257Z" fill="white"/>
<path d="M200.982 370.945L202.141 362.143L197.798 361.57L197.964 360.305L203.646 361.053L202.319 371.122L200.982 370.945Z" fill="white"/>
<path d="M196.129 359.993L194.455 370.009L193.125 369.787L194.798 359.77L196.129 359.993Z" fill="white"/>
<path d="M181.495 362.298C181.782 360.935 182.499 359.856 183.645 359.059L182.782 357.736L183.864 357.104L184.747 358.476C185.735 358.101 186.731 358.019 187.734 358.23C189.154 358.529 190.259 359.286 191.051 360.5C191.843 361.715 192.089 363.037 191.788 364.466C191.487 365.895 190.729 367.005 189.514 367.797C188.3 368.589 186.983 368.836 185.563 368.537C184.144 368.238 183.038 367.481 182.246 366.266C181.447 365.04 181.196 363.718 181.495 362.298ZM187.462 359.522C186.771 359.376 186.112 359.406 185.486 359.61L187.052 362.03L185.973 362.648L184.359 360.173C183.546 360.753 183.031 361.554 182.816 362.576C182.586 363.665 182.767 364.661 183.357 365.566C183.938 366.47 184.763 367.034 185.832 367.259C186.902 367.484 187.889 367.302 188.794 366.711C189.692 366.11 190.254 365.27 190.482 364.191C190.709 363.112 190.532 362.121 189.951 361.218C189.361 360.312 188.531 359.747 187.462 359.522Z" fill="white"/>
<path d="M180.169 360.194L178.38 366.699L177.079 366.341L178.853 359.892C179.045 359.193 178.991 358.586 178.691 358.073C178.382 357.556 177.85 357.194 177.094 356.986C176.339 356.779 175.701 356.819 175.18 357.107C174.65 357.392 174.289 357.885 174.097 358.584L172.323 365.033L171.036 364.679L172.825 358.174C173.118 357.111 173.69 356.361 174.543 355.923C175.395 355.486 176.363 355.416 177.444 355.713C178.535 356.013 179.335 356.57 179.844 357.382C180.353 358.194 180.461 359.131 180.169 360.194Z" fill="white"/>
<path d="M171.628 354.19L168.53 363.861L167.245 363.45L170.343 353.779L171.628 354.19Z" fill="white"/>
<path d="M164.447 362.567L160.729 361.204C159.439 360.731 158.533 359.873 158.01 358.631C157.484 357.397 157.465 356.113 157.955 354.778C158.441 353.452 159.287 352.48 160.492 351.861C161.691 351.26 162.935 351.196 164.225 351.669L167.943 353.033L164.447 362.567ZM166.237 353.767L163.785 352.868C162.814 352.511 161.894 352.561 161.027 353.015C160.157 353.479 159.537 354.215 159.167 355.223C158.797 356.231 158.795 357.193 159.159 358.109C159.527 359.017 160.197 359.649 161.168 360.005L163.62 360.904L166.237 353.767Z" fill="white"/>
<path d="M157.558 349.077L153.637 358.445L152.393 357.924L156.314 348.556L157.558 349.077Z" fill="white"/>
<path d="M150.445 357.123L143.786 354.069L144.318 352.909L147.048 354.161L150.749 346.09L151.962 346.647L148.261 354.717L150.978 355.963L150.445 357.123Z" fill="white"/>
<path d="M136.457 350.292L135.12 349.593L141.112 345.9L143.015 342.262L144.21 342.887L142.301 346.538L142.679 353.547L141.342 352.848L141.105 347.353L136.457 350.292Z" fill="white"/>
<path d="M78.5763 258.316C78.9545 259.801 78.7782 261.145 78.0473 262.349C77.3257 263.551 76.2502 264.334 74.8211 264.698C73.3919 265.062 72.0729 264.889 70.8643 264.179C69.6463 263.472 68.8482 262.376 68.4699 260.891C68.2453 260.009 68.2507 259.138 68.4861 258.277C68.7215 257.417 69.1479 256.686 69.7654 256.084L70.7069 257.045C70.2396 257.46 69.9191 257.987 69.7454 258.624C69.5601 259.254 69.5525 259.903 69.7227 260.571C70.0112 261.704 70.6072 262.53 71.5107 263.051C72.405 263.574 73.3997 263.697 74.4948 263.418C75.5806 263.141 76.391 262.559 76.9259 261.672C77.47 260.782 77.5979 259.771 77.3095 258.639C77.1393 257.971 76.8266 257.403 76.3716 256.936C75.9049 256.462 75.3716 256.153 74.7717 256.009L75.1248 254.718C75.9527 254.942 76.6805 255.375 77.3082 256.015C77.9242 256.649 78.3469 257.416 78.5763 258.316Z" fill="white"/>
<path d="M72.0264 253.671C70.5945 253.933 69.2935 253.66 68.1235 252.851C66.944 252.045 66.2234 250.926 65.9616 249.494C65.6998 248.062 65.9778 246.76 66.7956 245.588C67.6022 244.409 68.7215 243.688 70.1534 243.426C71.5759 243.166 72.8778 243.444 74.0589 244.26C75.2384 245.067 75.959 246.186 76.2208 247.618C76.4826 249.05 76.2046 250.352 75.3868 251.524C74.5597 252.697 73.4395 253.413 72.0264 253.671ZM70.3937 244.74C69.3009 244.94 68.4542 245.475 67.8538 246.344C67.2404 247.196 67.0336 248.168 67.2334 249.261C67.4315 250.345 67.9698 251.186 68.8484 251.784C69.7252 252.374 70.7054 252.569 71.7887 252.371C72.8627 252.175 73.7102 251.645 74.3312 250.782C74.9317 249.913 75.1329 248.937 74.9348 247.853C74.7351 246.76 74.2023 245.923 73.3366 245.342C72.4486 244.744 71.4676 244.544 70.3937 244.74Z" fill="white"/>
<path d="M63.8907 233.712L63.7224 232.213L73.7154 231.091L73.8628 232.405L66.054 233.281L71.86 235.94L71.8792 236.111L66.8215 239.989L74.616 239.114L74.765 240.442L64.7721 241.564L64.6038 240.065L69.5284 236.288L63.8907 233.712Z" fill="white"/>
<path d="M63.0816 220.938L63.0176 219.431L73.0642 219.004L73.1203 220.324L65.2695 220.658L70.8774 223.712L70.8847 223.884L65.5704 227.403L73.4068 227.07L73.4635 228.405L63.4169 228.831L63.3528 227.324L68.5273 223.898L63.0816 220.938Z" fill="white"/>
<path d="M69.6466 215.106L62.9692 214.926L63.0053 213.59L69.6253 213.769C70.3433 213.788 70.9138 213.593 71.3368 213.183C71.7601 212.763 71.9823 212.166 72.0032 211.39C72.0242 210.615 71.8345 210.011 71.4342 209.579C71.0342 209.137 70.4752 208.906 69.7572 208.887L63.1373 208.708L63.173 207.387L69.8504 207.567C70.9417 207.597 71.7987 207.969 72.4212 208.686C73.0437 209.402 73.34 210.315 73.31 211.426C73.2797 212.546 72.9344 213.446 72.2741 214.128C71.6138 214.809 70.738 215.136 69.6466 215.106Z" fill="white"/>
<path d="M71.3242 198.482L63.8525 197.846L63.9657 196.515L73.9852 197.367L73.8939 198.441L65.9697 202.957L73.4557 203.593L73.3424 204.925L63.3229 204.072L63.4142 202.999L71.3242 198.482Z" fill="white"/>
<path d="M74.3022 194.745L64.3277 193.47L64.4971 192.144L74.4716 193.42L74.3022 194.745Z" fill="white"/>
<path d="M64.8029 189.465L65.9981 182.309L67.245 182.518L66.7551 185.451L75.4265 186.899L75.2087 188.203L66.5373 186.754L66.0497 189.673L64.8029 189.465Z" fill="white"/>
<path d="M67.8381 173.525L68.1627 172.067L73.2359 176.846L77.2041 177.729L76.9139 179.033L72.9316 178.147L66.3275 180.312L66.6521 178.854L71.8443 177.213L67.8381 173.525Z" fill="white"/>
<path d="M147.33 76.3664L154.14 73.4561L154.647 74.6428L151.855 75.8357L155.382 84.0883L154.142 84.6185L150.615 76.3659L147.837 77.5531L147.33 76.3664Z" fill="white"/>
<path d="M159.912 77.3238L161.044 80.3761L165.512 78.7186L165.961 79.9285L160.214 82.0603L156.644 72.436L162.322 70.3297L162.771 71.5396L158.371 73.1716L159.468 76.1277L163.524 74.6231L163.968 75.8193L159.912 77.3238Z" fill="white"/>
<path d="M176.281 76.5947L174.895 77.0272L173.412 75.0784L169.002 76.4545L168.89 78.9013L167.504 79.3338L168.1 68.3946L169.57 67.9359L176.281 76.5947ZM169.313 69.7212L169.07 75.0968L172.584 74.0003L169.313 69.7212Z" fill="white"/>
<path d="M182.837 64.3342L184.331 63.9655L186.79 73.9318L185.48 74.2549L183.559 66.4669L181.637 72.6958L181.466 72.7379L176.871 68.1319L178.788 75.9056L177.464 76.2323L175.006 66.2659L176.501 65.8971L180.975 70.3819L182.837 64.3342Z" fill="white"/>
<defs>
<filter id="filter0_f_318_3222" x="0.118286" y="0.118286" width="431.763" height="431.763" filterUnits="userSpaceOnUse" color-interpolation-filters="sRGB">
<feFlood flood-opacity="0" result="BackgroundImageFix"/>
<feBlend mode="normal" in="SourceGraphic" in2="BackgroundImageFix" result="shape"/>
<feGaussianBlur stdDeviation="18.6641" result="effect1_foregroundBlur_318_3222"/>
</filter>
<filter id="filter1_f_318_3222" x="21.8931" y="21.8931" width="388.214" height="388.214" filterUnits="userSpaceOnUse" color-interpolation-filters="sRGB">
<feFlood flood-opacity="0" result="BackgroundImageFix"/>
<feBlend mode="normal" in="SourceGraphic" in2="BackgroundImageFix" result="shape"/>
<feGaussianBlur stdDeviation="7.77672" result="effect1_foregroundBlur_318_3222"/>
</filter>
<filter id="filter2_f_318_3222" x="32.4694" y="32.4693" width="367.061" height="367.061" filterUnits="userSpaceOnUse" color-interpolation-filters="sRGB">
<feFlood flood-opacity="0" result="BackgroundImageFix"/>
<feBlend mode="normal" in="SourceGraphic" in2="BackgroundImageFix" result="shape"/>
<feGaussianBlur stdDeviation="3.11069" result="effect1_foregroundBlur_318_3222"/>
</filter>
<filter id="filter3_f_318_3222" x="125.258" y="184.807" width="41.1996" height="41.2418" filterUnits="userSpaceOnUse" color-interpolation-filters="sRGB">
<feFlood flood-opacity="0" result="BackgroundImageFix"/>
<feBlend mode="normal" in="SourceGraphic" in2="BackgroundImageFix" result="shape"/>
<feGaussianBlur stdDeviation="1.16214" result="effect1_foregroundBlur_318_3222"/>
</filter>
<filter id="filter4_f_318_3222" x="119.679" y="179.229" width="52.3561" height="52.3984" filterUnits="userSpaceOnUse" color-interpolation-filters="sRGB">
<feFlood flood-opacity="0" result="BackgroundImageFix"/>
<feBlend mode="normal" in="SourceGraphic" in2="BackgroundImageFix" result="shape"/>
<feGaussianBlur stdDeviation="3.95128" result="effect1_foregroundBlur_318_3222"/>
</filter>
<filter id="filter5_f_318_3222" x="119.679" y="179.229" width="52.3561" height="52.3984" filterUnits="userSpaceOnUse" color-interpolation-filters="sRGB">
<feFlood flood-opacity="0" result="BackgroundImageFix"/>
<feBlend mode="normal" in="SourceGraphic" in2="BackgroundImageFix" result="shape"/>
<feGaussianBlur stdDeviation="3.95128" result="effect1_foregroundBlur_318_3222"/>
</filter>
<linearGradient id="paint0_linear_318_3222" x1="47.0896" y1="56.4217" x2="317.516" y2="368.642" gradientUnits="userSpaceOnUse">
<stop stop-color="#0038FF"/>
<stop offset="0.400346" stop-color="#0038FF"/>
<stop offset="0.637606" stop-color="#8F00FF"/>
<stop offset="0.934359" stop-color="#FF3D00"/>
</linearGradient>
<linearGradient id="paint1_linear_318_3222" x1="47.0896" y1="56.4217" x2="317.516" y2="368.642" gradientUnits="userSpaceOnUse">
<stop stop-color="#0038FF"/>
<stop offset="0.400346" stop-color="#0038FF"/>
<stop offset="0.637606" stop-color="#8F00FF"/>
<stop offset="0.934359" stop-color="#FF3D00"/>
</linearGradient>
<linearGradient id="paint2_linear_318_3222" x1="47.0896" y1="56.4217" x2="317.516" y2="368.642" gradientUnits="userSpaceOnUse">
<stop stop-color="#0038FF"/>
<stop offset="0.400346" stop-color="#0038FF"/>
<stop offset="0.637606" stop-color="#8F00FF"/>
<stop offset="0.934359" stop-color="#FF3D00"/>
</linearGradient>
<linearGradient id="paint3_linear_318_3222" x1="158.873" y1="192.188" x2="133.536" y2="217.891" gradientUnits="userSpaceOnUse">
<stop stop-color="#0047FF"/>
<stop offset="1" stop-color="#FF00B8"/>
</linearGradient>
<linearGradient id="paint4_linear_318_3222" x1="155.635" y1="195.43" x2="133.54" y2="217.895" gradientUnits="userSpaceOnUse">
<stop stop-color="#0238FF"/>
<stop offset="1" stop-color="#FF006B"/>
</linearGradient>
<linearGradient id="paint5_linear_318_3222" x1="158.609" y1="192.387" x2="133.536" y2="217.891" gradientUnits="userSpaceOnUse">
<stop stop-color="#0238FF"/>
<stop offset="1" stop-color="#FF00F5"/>
</linearGradient>
</defs>
</svg>
