<svg width="32" height="32" viewBox="0 0 32 32" fill="none" xmlns="http://www.w3.org/2000/svg">
<path fill-rule="evenodd" clip-rule="evenodd" d="M11.0532 26.6666C21.1158 26.6666 26.6198 18.458 26.6198 11.3404C26.6198 11.1067 26.6198 10.8748 26.6038 10.6438C27.6745 9.88238 28.5985 8.93704 29.3332 7.85536C28.3358 8.29118 27.2758 8.577 26.1918 8.70301C27.3332 8.02959 28.1878 6.9716 28.5972 5.7232C27.5225 6.35068 26.3478 6.79353 25.1225 7.03114C23.0505 4.86251 19.5852 4.75744 17.3812 6.79742C15.9612 8.11276 15.3572 10.0739 15.7985 11.9446C11.3998 11.7266 7.30117 9.68145 4.5225 6.31695C3.0705 8.77829 3.81317 11.9259 6.21717 13.5064C5.3465 13.4815 4.4945 13.2507 3.73317 12.8332V12.9016C3.7345 15.4653 5.5705 17.6729 8.1225 18.1809C7.31717 18.3975 6.47184 18.4289 5.65317 18.2727C6.36917 20.4676 8.42384 21.9709 10.7638 22.0142C8.8265 23.5133 6.43317 24.3274 3.96917 24.3248C3.5345 24.3234 3.09984 24.2985 2.6665 24.2473C5.16917 25.8278 8.07984 26.6666 11.0532 26.6627" fill="#86888A"/>
</svg>
