<svg width="32" height="32" viewBox="0 0 32 32" fill="none" xmlns="http://www.w3.org/2000/svg">
<path d="M25.2557 7.36407C23.5295 6.55643 21.6838 5.96947 19.7542 5.63525C19.5172 6.06371 19.2403 6.63999 19.0494 7.09842C16.9982 6.78994 14.9658 6.78994 12.9522 7.09842C12.7614 6.63999 12.4782 6.06371 12.2391 5.63525C10.3074 5.96947 8.45957 6.55859 6.73339 7.36834C3.25166 12.6297 2.30782 17.7603 2.77974 22.8181C5.08901 24.5426 7.32696 25.5902 9.52714 26.2757C10.0704 25.5281 10.5549 24.7333 10.9723 23.8957C10.1773 23.5936 9.41598 23.2209 8.69659 22.7882C8.88744 22.6468 9.07412 22.4989 9.25448 22.3468C13.6423 24.3991 18.4097 24.3991 22.7451 22.3468C22.9276 22.4989 23.1142 22.6468 23.303 22.7882C22.5815 23.223 21.818 23.5958 21.0231 23.8979C21.4405 24.7333 21.9229 25.5302 22.4682 26.2779C24.6705 25.5923 26.9106 24.5448 29.2198 22.8181C29.7736 16.9549 28.2739 11.8713 25.2557 7.36407ZM11.57 19.7076C10.2529 19.7076 9.17267 18.478 9.17267 16.9806C9.17267 15.4831 10.2298 14.2514 11.57 14.2514C12.9103 14.2514 13.9905 15.481 13.9674 16.9806C13.9695 18.478 12.9103 19.7076 11.57 19.7076ZM20.4296 19.7076C19.1124 19.7076 18.0322 18.478 18.0322 16.9806C18.0322 15.4831 19.0893 14.2514 20.4296 14.2514C21.7698 14.2514 22.85 15.481 22.8269 16.9806C22.8269 18.478 21.7698 19.7076 20.4296 19.7076Z" fill="#86888A"/>
</svg>
