<svg width="32" height="32" viewBox="0 0 32 32" fill="none" xmlns="http://www.w3.org/2000/svg">
<path fill-rule="evenodd" clip-rule="evenodd" d="M15.9998 2.6665C23.3638 2.6665 29.3332 8.78641 29.3332 16.3371C29.3332 22.3757 25.5172 27.4984 20.2225 29.3078C19.5465 29.4424 19.3065 29.0155 19.3065 28.6515C19.3065 28.2009 19.3225 26.7289 19.3225 24.8996C19.3225 23.6249 18.8958 22.793 18.4172 22.369C21.3865 22.0303 24.5065 20.8742 24.5065 15.6235C24.5065 14.1302 23.9892 12.9116 23.1332 11.9543C23.2718 11.6089 23.7292 10.2184 23.0025 8.33577C23.0025 8.33577 21.8852 7.96947 19.3398 9.73747C18.2745 9.4348 17.1332 9.28251 15.9998 9.27718C14.8665 9.28251 13.7265 9.4348 12.6625 9.73747C10.1145 7.96947 8.99451 8.33577 8.99451 8.33577C8.27051 10.2184 8.72784 11.6089 8.86517 11.9543C8.01317 12.9116 7.49184 14.1302 7.49184 15.6235C7.49184 20.8609 10.6052 22.0347 13.5665 22.38C13.1852 22.7214 12.8398 23.3235 12.7198 24.2075C11.9598 24.5569 10.0292 25.1614 8.83983 23.0721C8.83983 23.0721 8.1345 21.7586 6.79584 21.6626C6.79584 21.6626 5.49584 21.6453 6.70517 22.4933C6.70517 22.4933 7.5785 22.9133 8.18517 24.4933C8.18517 24.4933 8.96784 26.9333 12.6772 26.1066C12.6838 27.2493 12.6958 28.3262 12.6958 28.6515C12.6958 29.0129 12.4505 29.4357 11.7852 29.3091C6.4865 27.5024 2.6665 22.3771 2.6665 16.3371C2.6665 8.78641 8.63717 2.6665 15.9998 2.6665Z" fill="#86888A"/>
</svg>
