<svg width="32" height="32" viewBox="0 0 32 32" fill="none" xmlns="http://www.w3.org/2000/svg">
<path d="M17.5659 16.2747C17.5659 20.1083 14.4794 23.2162 10.6718 23.2162C6.86418 23.2162 3.77783 20.1093 3.77783 16.2747C3.77783 12.4402 6.86441 9.3335 10.6718 9.3335C14.4792 9.3335 17.5659 12.4411 17.5659 16.2747ZM25.1289 16.2747C25.1289 19.8836 23.5855 22.8088 21.6818 22.8088C19.7782 22.8088 18.2347 19.8826 18.2347 16.2747C18.2347 12.6668 19.7782 9.7406 21.6818 9.7406C23.5855 9.7406 25.1289 12.6668 25.1289 16.2747ZM28.2223 16.2747C28.2223 19.5081 27.6794 22.1291 27.0098 22.1291C26.3404 22.1291 25.7975 19.5072 25.7975 16.2747C25.7975 13.0423 26.3404 10.4204 27.0102 10.4204C27.6798 10.4204 28.2223 13.0416 28.2223 16.2747Z" fill="#86888A"/>
</svg>
