<svg width="514" height="243" viewBox="0 0 514 243" fill="none" xmlns="http://www.w3.org/2000/svg">
<path d="M101.127 243C97.1938 243.006 93.2642 242.749 89.3649 242.231C57.3014 237.957 28.2056 216.398 0.337226 176.312L0 175.827L0.445141 175.436L181.131 13.948L181.549 14.6356C190.169 28.2941 199.193 35.9256 209.161 37.948C224.62 41.0896 240.51 30.0469 255.874 19.3682C271.467 8.58171 287.6 -2.69022 303.625 0.572707C313.93 2.6626 323.224 10.4424 332.019 24.357L403.714 68.1908C410.191 67.6489 416.707 67.8026 423.151 68.6492C455.215 72.9233 484.311 94.4829 512.179 134.568L514 137.198L403.39 69.5391C354.398 73.7323 304.825 115.382 256.696 155.912C205.748 198.802 153.195 243 101.127 243ZM1.83451 176.056C29.3117 215.494 58.0029 236.73 89.5133 240.91C144.818 248.272 201.243 200.838 255.793 154.941C303.503 114.829 352.631 73.5166 401.474 68.4334L331.048 25.3548L330.967 25.2199C322.348 11.5615 313.323 3.91654 303.301 1.89406C287.843 -1.24751 271.953 9.79519 256.589 20.4739C240.995 31.2604 224.876 42.5323 208.837 39.2694C198.653 37.2065 189.481 29.6019 180.78 16.0244L1.83451 176.056ZM405.696 69.4312L509.157 132.708C482.179 94.6582 453.92 74.1368 422.976 70.011C417.248 69.2612 411.462 69.0626 405.696 69.4177V69.4312Z" fill="#5EEA8F"/>
<path d="M120.025 209.103C116.416 209.106 112.811 208.862 109.234 208.375C80.8533 204.479 55.1027 185.225 30.3908 149.494L31.5104 148.726C55.9256 184.119 81.4198 203.198 109.477 207.04C158.146 213.701 207.799 172.348 255.82 132.344C304.083 92.1504 353.979 50.6628 403.228 57.4043C431.663 61.301 457.467 80.5549 482.125 116.285L481.006 117.054C456.591 81.6471 431.096 62.5819 403.039 58.7392C354.384 52.0785 304.717 93.4313 256.696 133.436C211.94 170.663 165.78 209.103 120.025 209.103Z" fill="#5EEA8F"/>
<path d="M138.91 175.207C135.67 175.206 132.433 174.976 129.225 174.519C104.392 171 81.8919 154.038 60.4309 122.663L61.537 121.908C82.7957 152.919 105.012 169.719 129.441 173.144C171.459 179.103 214.422 143.831 255.86 109.773C297.582 75.4584 340.72 39.9977 383.318 46.0382C408.151 49.5573 430.651 66.5191 452.112 97.8944L451.006 98.6494C429.747 67.6382 407.531 50.8381 383.102 47.4134C341.084 41.4539 298.121 76.7258 256.683 110.784C218.131 142.497 178.352 175.207 138.91 175.207Z" fill="#5EEA8F"/>
<path d="M157.822 141.31C154.919 141.314 152.02 141.102 149.148 140.676C127.944 137.521 108.681 122.852 90.4035 95.8449L91.5231 95.1573C109.625 121.84 128.537 136.321 149.351 139.409C184.719 144.681 220.843 115.476 255.833 87.2292C291.026 58.8067 327.419 29.4134 363.368 34.7662C384.573 37.9213 403.835 52.5775 422.113 79.5977L420.993 80.3528C402.891 53.6696 383.979 39.1887 363.165 36.101C327.797 30.8426 291.674 60.0337 256.683 88.2809C224.323 114.344 190.951 141.31 157.822 141.31Z" fill="#5EEA8F"/>
<path d="M176.733 107.44C174.168 107.444 171.606 107.246 169.072 106.847C151.536 104.056 135.565 91.6784 120.403 69.0133L121.523 68.2582C136.469 90.5998 152.089 102.789 169.287 105.512C198.019 110.056 227.412 86.9324 255.847 64.5638C284.497 42.02 314.133 18.7211 343.445 23.3458C360.98 26.1368 376.951 38.5144 392.113 61.1795L390.98 61.9346C376.048 39.593 360.427 27.4042 343.229 24.6806C314.511 20.1368 285.104 43.2604 256.669 65.629C230.46 86.2178 203.482 107.44 176.733 107.44Z" fill="#5EEA8F"/>
<path d="M195.672 73.5843C193.411 73.5893 191.154 73.3953 188.928 73.0045C174.953 70.5775 162.327 60.4786 150.335 42.155L151.468 41.4134C163.244 59.4135 175.573 69.3101 189.157 71.6831C211.252 75.5258 233.887 58.4561 255.779 41.9393C277.901 25.2606 300.779 8.00217 323.454 11.9527C337.428 14.3932 350.054 24.4786 362.032 42.8022L360.913 43.5438C349.137 25.5572 336.808 15.6471 323.224 13.2876C301.116 9.43138 278.495 26.5145 256.602 42.9505C236.706 58.0921 216.148 73.5843 195.672 73.5843Z" fill="#5EEA8F"/>
<path d="M306.757 1.38936L306.093 2.56299L426.125 70.4169L426.789 69.2433L306.757 1.38936Z" fill="#5EEA8F"/>
<path d="M281.893 4.18068L280.785 4.94922L340.803 91.4272L341.911 90.6586L281.893 4.18068Z" fill="#5EEA8F"/>
<path d="M256.939 19.9209H255.59V155.454H256.939V19.9209Z" fill="#5EEA8F"/>
<path d="M230.454 34.9869L170.547 219.609L171.83 220.025L231.737 35.4029L230.454 34.9869Z" fill="#5EEA8F"/>
<path d="M205.42 37.4631L85.5337 240.739L86.6957 241.423L206.582 38.1478L205.42 37.4631Z" fill="#5EEA8F"/>
</svg>
