<svg width="48" height="48" viewBox="0 0 48 48" fill="none" xmlns="http://www.w3.org/2000/svg">
<path d="M26.3489 24.4118C26.3489 30.1622 21.7191 34.824 16.0076 34.824C10.2963 34.824 5.66675 30.1637 5.66675 24.4118C5.66675 18.6601 10.2966 14 16.0076 14C21.7187 14 26.3489 18.6615 26.3489 24.4118ZM37.6934 24.4118C37.6934 29.8252 35.3782 34.213 32.5227 34.213C29.6672 34.213 27.3521 29.8237 27.3521 24.4118C27.3521 19 29.6672 14.6107 32.5227 14.6107C35.3782 14.6107 37.6934 19 37.6934 24.4118ZM42.3334 24.4118C42.3334 29.2618 41.5191 33.1933 40.5147 33.1933C39.5106 33.1933 38.6962 29.2605 38.6962 24.4118C38.6962 19.5632 39.5106 15.6304 40.5152 15.6304C41.5197 15.6304 42.3334 19.5621 42.3334 24.4118Z" fill="white"/>
</svg>
