<svg width="48" height="48" viewBox="0 0 48 48" fill="none" xmlns="http://www.w3.org/2000/svg">
<path fill-rule="evenodd" clip-rule="evenodd" d="M16.58 39.9996C31.674 39.9996 39.93 27.6867 39.93 17.0103C39.93 16.6598 39.93 16.312 39.906 15.9654C41.512 14.8233 42.898 13.4053 44 11.7828C42.504 12.4365 40.914 12.8653 39.288 13.0543C41 12.0441 42.282 10.4572 42.896 8.58455C41.284 9.52577 39.522 10.19 37.684 10.5465C34.576 7.29352 29.378 7.13592 26.072 10.1959C23.942 12.1689 23.036 15.1106 23.698 17.9166C17.1 17.5897 10.952 14.5219 6.784 9.47518C4.606 13.1672 5.72 17.8886 9.326 20.2594C8.02 20.2219 6.742 19.8758 5.6 19.2496V19.3521C5.602 23.1978 8.356 26.5091 12.184 27.2711C10.976 27.596 9.708 27.6431 8.48 27.4088C9.554 30.7011 12.636 32.9561 16.146 33.0211C13.24 35.2698 9.65 36.4908 5.954 36.4869C5.302 36.4849 4.65 36.4475 4 36.3707C7.754 38.7415 12.12 39.9996 16.58 39.9937" fill="#1DA1F2"/>
</svg>
