<svg width="48" height="48" viewBox="0 0 48 48" fill="none" xmlns="http://www.w3.org/2000/svg">
<path fill-rule="evenodd" clip-rule="evenodd" d="M24 4C35.046 4 44 13.1799 44 24.5059C44 33.5639 38.276 41.2479 30.334 43.9619C29.32 44.1639 28.96 43.5235 28.96 42.9775C28.96 42.3015 28.984 40.0936 28.984 37.3496C28.984 35.4376 28.344 34.1897 27.626 33.5537C32.08 33.0457 36.76 31.3115 36.76 23.4355C36.76 21.1955 35.984 19.3676 34.7 17.9316C34.908 17.4136 35.594 15.3279 34.504 12.5039C34.504 12.5039 32.828 11.9544 29.01 14.6064C27.412 14.1524 25.7 13.924 24 13.916C22.3 13.924 20.59 14.1524 18.994 14.6064C15.172 11.9544 13.492 12.5039 13.492 12.5039C12.406 15.3279 13.092 17.4136 13.298 17.9316C12.02 19.3676 11.238 21.1955 11.238 23.4355C11.238 31.2915 15.908 33.0523 20.35 33.5703C19.778 34.0823 19.26 34.9855 19.08 36.3115C17.94 36.8355 15.044 37.7424 13.26 34.6084C13.26 34.6084 12.202 32.6381 10.194 32.4941C10.194 32.4941 8.244 32.4682 10.058 33.7402C10.058 33.7402 11.368 34.3702 12.278 36.7402C12.278 36.7402 13.452 40.4002 19.016 39.1602C19.026 40.8742 19.044 42.4895 19.044 42.9775C19.044 43.5195 18.676 44.1539 17.678 43.9639C9.72999 41.2539 4 33.5659 4 24.5059C4 13.1799 12.956 4 24 4Z" fill="white"/>
</svg>
