<svg width="48" height="48" viewBox="0 0 48 48" fill="none" xmlns="http://www.w3.org/2000/svg">
<path d="M37.8838 11.0463C35.2945 9.83489 32.526 8.95445 29.6315 8.45312C29.276 9.09581 28.8607 9.96023 28.5744 10.6479C25.4975 10.1852 22.4489 10.1852 19.4286 10.6479C19.1423 9.96023 18.7176 9.09581 18.3589 8.45312C15.4613 8.95445 12.6896 9.83812 10.1003 11.0528C4.87774 18.9448 3.46198 26.6408 4.16986 34.2275C7.63375 36.8142 10.9907 38.3856 14.291 39.4138C15.1058 38.2924 15.8326 37.1002 16.4586 35.8438C15.2663 35.3907 14.1242 34.8316 13.0451 34.1825C13.3314 33.9704 13.6114 33.7487 13.882 33.5205C20.4637 36.5989 27.6148 36.5989 34.1179 33.5205C34.3916 33.7487 34.6716 33.9704 34.9547 34.1825C33.8725 34.8348 32.7273 35.3939 31.5349 35.847C32.161 37.1002 32.8846 38.2956 33.7026 39.417C37.0061 38.3888 40.3661 36.8174 43.83 34.2275C44.6606 25.4325 42.4111 17.8072 37.8838 11.0463ZM17.3553 29.5617C15.3795 29.5617 13.7593 27.7172 13.7593 25.4711C13.7593 23.2249 15.3449 21.3773 17.3553 21.3773C19.3657 21.3773 20.9859 23.2217 20.9513 25.4711C20.9545 27.7172 19.3657 29.5617 17.3553 29.5617ZM30.6446 29.5617C28.6688 29.5617 27.0485 27.7172 27.0485 25.4711C27.0485 23.2249 28.6342 21.3773 30.6446 21.3773C32.6549 21.3773 34.2752 23.2217 34.2406 25.4711C34.2406 27.7172 32.6549 29.5617 30.6446 29.5617Z" fill="#5865F2"/>
</svg>
