<svg width="176" height="65" viewBox="0 0 176 65" fill="none" xmlns="http://www.w3.org/2000/svg">
<g filter="url(#filter0_d_303_1369)">
<path d="M41.4978 29.2009H51.8431V32.1544L46.3648 37.8342H51.8431V41.0149H41.4978V38.0614L46.9761 32.3816H41.4978V29.2009Z" fill="white"/>
<path d="M61.5075 34.2218L66.8918 41.0149H62.1659L58.9447 36.9709L57.7221 38.2886V41.0149H53.9601V24.2026H57.7221V33.4267L61.484 29.2009H66.1864L61.5075 34.2218Z" fill="white"/>
<path d="M78.8793 41.0149H67.5935V25.1114H71.5905V37.607H78.8793V41.0149Z" fill="white"/>
<path d="M85.4581 28.9737C87.0883 28.9737 88.3971 29.3826 89.3846 30.2005C90.3878 31.0033 90.8894 32.1923 90.8894 33.7675V41.0149H87.1275V39.8562C86.234 40.7801 85.0584 41.2421 83.6006 41.2421C82.4407 41.2421 81.4767 40.9316 80.7086 40.3106C79.9563 39.6745 79.5801 38.8339 79.5801 37.7888C79.5801 35.4866 81.2102 34.184 84.4706 33.8811L86.1399 33.7447C86.7983 33.6993 87.1275 33.4418 87.1275 32.9723C87.1275 32.6694 86.9707 32.4194 86.6572 32.2225C86.3594 32.0256 85.9754 31.9272 85.5051 31.9272C84.9722 31.9272 84.549 32.0635 84.2355 32.3361C83.922 32.6088 83.7339 32.9647 83.6712 33.404L79.9327 32.6315C80.0581 31.6167 80.6068 30.7534 81.5786 30.0415C82.5661 29.3296 83.8593 28.9737 85.4581 28.9737ZM84.5646 38.4022C85.223 38.4022 85.8108 38.175 86.328 37.7206C86.861 37.2662 87.1275 36.7588 87.1275 36.1984V36.1303C86.9707 36.206 86.6807 36.2666 86.2575 36.312L84.4471 36.5165C83.7104 36.6074 83.342 36.9254 83.342 37.4707C83.342 37.7585 83.4439 37.9857 83.6477 38.1523C83.8671 38.3189 84.1728 38.4022 84.5646 38.4022Z" fill="white"/>
<path d="M92.768 35.9712V29.2009H96.5299V35.9712C96.5299 36.5619 96.718 37.039 97.0942 37.4025C97.4861 37.7509 98.0033 37.9251 98.646 37.9251C99.2573 37.9251 99.7589 37.7509 100.151 37.4025C100.558 37.039 100.762 36.5619 100.762 35.9712V29.2009H104.524V35.9712C104.524 37.5313 103.968 38.8036 102.855 39.7881C101.757 40.7574 100.355 41.2421 98.646 41.2421C96.9061 41.2421 95.4875 40.7574 94.3903 39.7881C93.3087 38.8036 92.768 37.5313 92.768 35.9712Z" fill="white"/>
<path d="M113.925 28.9737C115.367 28.9737 116.527 29.4205 117.405 30.3141C118.298 31.2078 118.745 32.3589 118.745 33.7675V41.0149H114.983V34.449C114.983 33.7978 114.764 33.2752 114.325 32.8814C113.902 32.4725 113.337 32.268 112.632 32.268C111.942 32.268 111.378 32.4725 110.939 32.8814C110.5 33.2752 110.281 33.7978 110.281 34.449V41.0149H106.519V29.2009H110.281V30.6095C111.206 29.519 112.42 28.9737 113.925 28.9737Z" fill="white"/>
<path d="M122.16 39.4927C120.906 38.3113 120.279 36.8497 120.279 35.1079C120.279 33.3661 120.906 31.9121 122.16 30.7458C123.43 29.5644 124.997 28.9737 126.862 28.9737C128.163 28.9737 129.339 29.3069 130.389 29.9733C131.439 30.6246 132.223 31.5561 132.74 32.7678L129.308 33.9038C128.822 32.8284 128.007 32.2907 126.862 32.2907C126.094 32.2907 125.452 32.5633 124.934 33.1086C124.433 33.6387 124.182 34.3051 124.182 35.1079C124.182 35.9106 124.433 36.5847 124.934 37.1299C125.452 37.66 126.094 37.9251 126.862 37.9251C128.007 37.9251 128.822 37.3874 129.308 36.312L132.74 37.448C132.223 38.6597 131.439 39.5987 130.389 40.2652C129.339 40.9165 128.163 41.2421 126.862 41.2421C124.997 41.2421 123.43 40.659 122.16 39.4927Z" fill="white"/>
<path d="M141.559 28.9737C143.001 28.9737 144.161 29.4205 145.039 30.3141C145.933 31.2078 146.379 32.3589 146.379 33.7675V41.0149H142.617V34.449C142.617 33.7978 142.398 33.2752 141.959 32.8814C141.536 32.4725 140.971 32.268 140.266 32.268C139.576 32.268 139.012 32.4725 138.573 32.8814C138.134 33.2752 137.915 33.7978 137.915 34.449V41.0149H134.153V24.2026H137.915V30.6095C138.84 29.519 140.054 28.9737 141.559 28.9737Z" fill="white"/>
</g>
<g filter="url(#filter1_f_303_1369)">
<path d="M24.0397 39.3077L28.6097 40.7774C29.028 40.9119 29.4747 40.6724 29.5919 40.2507L35.2049 20.0446C35.3647 19.469 34.8329 18.9397 34.2544 19.0988L13.9486 24.6843C13.5249 24.8008 13.2842 25.2453 13.4194 25.6616L14.8964 30.2092M24.0397 39.3077L17.1297 37.0853M24.0397 39.3077L21.6519 46.4925C21.4174 47.1982 20.4131 47.1948 20.1834 46.4875L17.1297 37.0853M24.0397 39.3077L28.0754 27.1646C28.2747 26.5647 27.7022 25.9949 27.0993 26.1933L14.8964 30.2092M17.1297 37.0853L7.68107 34.0466C6.97034 33.818 6.96693 32.8186 7.67608 32.5852L14.8964 30.2092M17.1297 37.0853L14.8964 30.2092" stroke="url(#paint0_linear_303_1369)" stroke-width="1.59692" stroke-linejoin="round"/>
</g>
<g filter="url(#filter2_f_303_1369)">
<path d="M24.0397 39.3077L28.6097 40.7774C29.028 40.9119 29.4747 40.6724 29.5919 40.2507L35.2049 20.0446C35.3647 19.469 34.8329 18.9397 34.2544 19.0988L13.9486 24.6843C13.5249 24.8008 13.2842 25.2453 13.4194 25.6616L14.8964 30.2092M24.0397 39.3077L17.1297 37.0853M24.0397 39.3077L21.6519 46.4925C21.4174 47.1982 20.4131 47.1948 20.1834 46.4875L17.1297 37.0853M24.0397 39.3077L28.0754 27.1646C28.2747 26.5647 27.7022 25.9949 27.0993 26.1933L14.8964 30.2092M17.1297 37.0853L7.68107 34.0466C6.97034 33.818 6.96693 32.8186 7.67608 32.5852L14.8964 30.2092M17.1297 37.0853L14.8964 30.2092" stroke="url(#paint1_linear_303_1369)" stroke-width="1.59692" stroke-linejoin="round"/>
<path d="M24.0397 39.3077L28.6097 40.7774C29.028 40.9119 29.4747 40.6724 29.5919 40.2507L35.2049 20.0446C35.3647 19.469 34.8329 18.9397 34.2544 19.0988L13.9486 24.6843C13.5249 24.8008 13.2842 25.2453 13.4194 25.6616L14.8964 30.2092M24.0397 39.3077L17.1297 37.0853M24.0397 39.3077L21.6519 46.4925C21.4174 47.1982 20.4131 47.1948 20.1834 46.4875L17.1297 37.0853M24.0397 39.3077L28.0754 27.1646C28.2747 26.5647 27.7022 25.9949 27.0993 26.1933L14.8964 30.2092M17.1297 37.0853L7.68107 34.0466C6.97034 33.818 6.96693 32.8186 7.67608 32.5852L14.8964 30.2092M17.1297 37.0853L14.8964 30.2092" stroke="#0038FF" stroke-width="1.59692" stroke-linejoin="round"/>
</g>
<g filter="url(#filter3_f_303_1369)">
<path d="M24.0397 39.3077L28.6097 40.7774C29.028 40.9119 29.4747 40.6724 29.5919 40.2507L35.2049 20.0446C35.3647 19.469 34.8329 18.9397 34.2544 19.0988L13.9486 24.6843C13.5249 24.8008 13.2842 25.2453 13.4194 25.6616L14.8964 30.2092M24.0397 39.3077L17.1297 37.0853M24.0397 39.3077L21.6519 46.4925C21.4174 47.1982 20.4131 47.1948 20.1834 46.4875L17.1297 37.0853M24.0397 39.3077L28.0754 27.1646C28.2747 26.5647 27.7022 25.9949 27.0993 26.1933L14.8964 30.2092M17.1297 37.0853L7.68107 34.0466C6.97034 33.818 6.96693 32.8186 7.67608 32.5852L14.8964 30.2092M17.1297 37.0853L14.8964 30.2092" stroke="url(#paint2_linear_303_1369)" stroke-width="1.59692" stroke-linejoin="round"/>
</g>
<path d="M24.0397 39.3077L28.6097 40.7774C29.028 40.9119 29.4747 40.6724 29.5919 40.2507L35.2049 20.0446C35.3647 19.469 34.8329 18.9397 34.2544 19.0988L13.9486 24.6843C13.5249 24.8008 13.2842 25.2453 13.4194 25.6616L14.8964 30.2092M24.0397 39.3077L17.1297 37.0853M24.0397 39.3077L21.6519 46.4925C21.4174 47.1982 20.4131 47.1948 20.1834 46.4875L17.1297 37.0853M24.0397 39.3077L28.0754 27.1646C28.2747 26.5647 27.7022 25.9949 27.0993 26.1933L14.8964 30.2092M17.1297 37.0853L7.68107 34.0466C6.97034 33.818 6.96693 32.8186 7.67608 32.5852L14.8964 30.2092M17.1297 37.0853L14.8964 30.2092" stroke="white" stroke-width="1.33202" stroke-linejoin="round"/>
<defs>
<filter id="filter0_d_303_1369" x="39.5949" y="22.2997" width="108.687" height="20.8452" filterUnits="userSpaceOnUse" color-interpolation-filters="sRGB">
<feFlood flood-opacity="0" result="BackgroundImageFix"/>
<feColorMatrix in="SourceAlpha" type="matrix" values="0 0 0 0 0 0 0 0 0 0 0 0 0 0 0 0 0 0 127 0" result="hardAlpha"/>
<feOffset/>
<feGaussianBlur stdDeviation="0.951444"/>
<feComposite in2="hardAlpha" operator="out"/>
<feColorMatrix type="matrix" values="0 0 0 0 0 0 0 0 0 0 0 0 0 0 0 0 0 0 0.5 0"/>
<feBlend mode="normal" in2="BackgroundImageFix" result="effect1_dropShadow_303_1369"/>
<feBlend mode="normal" in="SourceGraphic" in2="effect1_dropShadow_303_1369" result="shape"/>
</filter>
<filter id="filter1_f_303_1369" x="4.75074" y="16.6742" width="32.8795" height="32.7411" filterUnits="userSpaceOnUse" color-interpolation-filters="sRGB">
<feFlood flood-opacity="0" result="BackgroundImageFix"/>
<feBlend mode="normal" in="SourceGraphic" in2="BackgroundImageFix" result="shape"/>
<feGaussianBlur stdDeviation="0.798458" result="effect1_foregroundBlur_303_1369"/>
</filter>
<filter id="filter2_f_303_1369" x="0.918143" y="12.8416" width="40.5447" height="40.4063" filterUnits="userSpaceOnUse" color-interpolation-filters="sRGB">
<feFlood flood-opacity="0" result="BackgroundImageFix"/>
<feBlend mode="normal" in="SourceGraphic" in2="BackgroundImageFix" result="shape"/>
<feGaussianBlur stdDeviation="2.71476" result="effect1_foregroundBlur_303_1369"/>
</filter>
<filter id="filter3_f_303_1369" x="0.918143" y="12.8416" width="40.5447" height="40.4063" filterUnits="userSpaceOnUse" color-interpolation-filters="sRGB">
<feFlood flood-opacity="0" result="BackgroundImageFix"/>
<feBlend mode="normal" in="SourceGraphic" in2="BackgroundImageFix" result="shape"/>
<feGaussianBlur stdDeviation="2.71476" result="effect1_foregroundBlur_303_1369"/>
</filter>
<linearGradient id="paint0_linear_303_1369" x1="31.8718" y1="22.2456" x2="11.2081" y2="43.3365" gradientUnits="userSpaceOnUse">
<stop stop-color="#0047FF"/>
<stop offset="1" stop-color="#FF00B8"/>
</linearGradient>
<linearGradient id="paint1_linear_303_1369" x1="29.2149" y1="24.8895" x2="11.1951" y2="43.3235" gradientUnits="userSpaceOnUse">
<stop stop-color="#0238FF"/>
<stop offset="1" stop-color="#FF006B"/>
</linearGradient>
<linearGradient id="paint2_linear_303_1369" x1="31.6549" y1="22.4075" x2="11.2073" y2="43.3354" gradientUnits="userSpaceOnUse">
<stop stop-color="#0238FF"/>
<stop offset="1" stop-color="#FF00F5"/>
</linearGradient>
</defs>
</svg>
