<svg width="654" height="654" viewBox="0 0 694 694" fill="none" xmlns="http://www.w3.org/2000/svg">
<rect x="85" y="85" width="524" height="524" rx="262" fill="black"/>
<g filter="url(#filter0_f_229_1903)">
<circle cx="347" cy="347" r="283" stroke="white" stroke-width="8"/>
<circle cx="347" cy="347" r="283" stroke="url(#paint0_linear_229_1903)" stroke-width="8"/>
</g>
<g filter="url(#filter1_f_229_1903)">
<circle cx="347" cy="347" r="283" stroke="white" stroke-width="8"/>
<circle cx="347" cy="347" r="283" stroke="url(#paint1_linear_229_1903)" stroke-width="8"/>
</g>
<g filter="url(#filter2_f_229_1903)">
<circle cx="347" cy="347" r="283" stroke="white" stroke-width="4"/>
<circle cx="347" cy="347" r="283" stroke="url(#paint2_linear_229_1903)" stroke-width="4"/>
</g>
<circle cx="347" cy="347" r="283" stroke="white" stroke-width="1.5"/>
<path d="M274.027 322.203H294.289V328.024L283.559 339.217H294.289V345.485H274.027V339.665L284.757 328.471H274.027V322.203Z" fill="white"/>
<path d="M313.218 332.098L323.764 345.485H314.507L308.198 337.516L305.804 340.112V345.485H298.436V312.353H305.804V330.531L313.172 322.203H322.382L313.218 332.098Z" fill="white"/>
<path d="M347.243 345.485H325.138V314.144H332.967V338.769H347.243V345.485Z" fill="white"/>
<path d="M360.128 321.756C363.321 321.756 365.885 322.561 367.819 324.173C369.784 325.755 370.766 328.098 370.766 331.203V345.485H363.398V343.202C361.648 345.022 359.345 345.933 356.49 345.933C354.218 345.933 352.33 345.321 350.826 344.097C349.352 342.843 348.615 341.187 348.615 339.127C348.615 334.59 351.808 332.023 358.194 331.426L361.464 331.158C362.753 331.068 363.398 330.561 363.398 329.636C363.398 329.039 363.091 328.546 362.477 328.158C361.893 327.77 361.141 327.576 360.22 327.576C359.176 327.576 358.347 327.845 357.733 328.382C357.119 328.919 356.751 329.621 356.628 330.486L349.306 328.964C349.552 326.964 350.626 325.263 352.53 323.86C354.464 322.457 356.997 321.756 360.128 321.756ZM358.378 340.336C359.668 340.336 360.819 339.888 361.832 338.993C362.876 338.098 363.398 337.098 363.398 335.993V335.859C363.091 336.008 362.523 336.128 361.694 336.217L358.148 336.62C356.705 336.799 355.984 337.426 355.984 338.501C355.984 339.068 356.183 339.515 356.582 339.844C357.012 340.172 357.611 340.336 358.378 340.336Z" fill="white"/>
<path d="M374.445 335.546V322.203H381.814V335.546C381.814 336.71 382.182 337.65 382.919 338.366C383.686 339.053 384.7 339.396 385.958 339.396C387.156 339.396 388.138 339.053 388.906 338.366C389.704 337.65 390.103 336.71 390.103 335.546V322.203H397.471V335.546C397.471 338.62 396.381 341.127 394.201 343.067C392.052 344.978 389.305 345.933 385.958 345.933C382.55 345.933 379.772 344.978 377.623 343.067C375.505 341.127 374.445 338.62 374.445 335.546Z" fill="white"/>
<path d="M415.884 321.756C418.709 321.756 420.981 322.636 422.7 324.397C424.45 326.158 425.325 328.427 425.325 331.203V345.485H417.957V332.546C417.957 331.262 417.527 330.232 416.667 329.456C415.838 328.651 414.733 328.248 413.352 328.248C412.001 328.248 410.895 328.651 410.036 329.456C409.176 330.232 408.746 331.262 408.746 332.546V345.485H401.378V322.203H408.746V324.979C410.558 322.83 412.937 321.756 415.884 321.756Z" fill="white"/>
<path d="M432.013 342.485C429.557 340.157 428.329 337.277 428.329 333.844C428.329 330.412 429.557 327.546 432.013 325.248C434.5 322.92 437.57 321.756 441.223 321.756C443.772 321.756 446.074 322.412 448.131 323.726C450.188 325.009 451.723 326.845 452.736 329.233L446.013 331.471C445.061 329.352 443.465 328.292 441.223 328.292C439.719 328.292 438.46 328.83 437.447 329.904C436.465 330.949 435.974 332.262 435.974 333.844C435.974 335.426 436.465 336.754 437.447 337.829C438.46 338.874 439.719 339.396 441.223 339.396C443.465 339.396 445.061 338.336 446.013 336.217L452.736 338.456C451.723 340.844 450.188 342.694 448.131 344.008C446.074 345.291 443.772 345.933 441.223 345.933C437.57 345.933 434.5 344.784 432.013 342.485Z" fill="white"/>
<path d="M470.009 321.756C472.834 321.756 475.105 322.636 476.825 324.397C478.575 326.158 479.45 328.427 479.45 331.203V345.485H472.081V332.546C472.081 331.262 471.652 330.232 470.792 329.456C469.963 328.651 468.858 328.248 467.476 328.248C466.125 328.248 465.02 328.651 464.161 329.456C463.301 330.232 462.871 331.262 462.871 332.546V345.485H455.503V312.353H462.871V324.979C464.682 322.83 467.062 321.756 470.009 321.756Z" fill="white"/>
<g filter="url(#filter3_f_229_1903)">
<path d="M239.836 342.12L248.787 345.017C249.606 345.282 250.481 344.81 250.711 343.979L261.704 304.159C262.018 303.024 260.976 301.981 259.843 302.295L220.072 313.302C219.242 313.532 218.77 314.408 219.035 315.228L221.928 324.19M239.836 342.12L226.302 337.741M239.836 342.12L235.159 356.279C234.7 357.67 232.733 357.663 232.283 356.269L226.302 337.741M239.836 342.12L247.741 318.19C248.131 317.008 247.01 315.885 245.829 316.276L221.928 324.19M226.302 337.741L207.796 331.752C206.404 331.302 206.397 329.332 207.786 328.872L221.928 324.19M226.302 337.741L221.928 324.19" stroke="url(#paint3_linear_229_1903)" stroke-width="3.73596" stroke-linejoin="round"/>
</g>
<g filter="url(#filter4_f_229_1903)">
<path d="M239.836 342.12L248.787 345.017C249.606 345.282 250.481 344.81 250.711 343.979L261.704 304.159C262.018 303.024 260.976 301.981 259.843 302.295L220.072 313.302C219.242 313.532 218.77 314.408 219.035 315.228L221.928 324.19M239.836 342.12L226.302 337.741M239.836 342.12L235.159 356.279C234.7 357.67 232.733 357.663 232.283 356.269L226.302 337.741M239.836 342.12L247.741 318.19C248.131 317.008 247.01 315.885 245.829 316.276L221.928 324.19M226.302 337.741L207.796 331.752C206.404 331.302 206.397 329.332 207.786 328.872L221.928 324.19M226.302 337.741L221.928 324.19" stroke="url(#paint4_linear_229_1903)" stroke-width="3.73596" stroke-linejoin="round"/>
<path d="M239.836 342.12L248.787 345.017C249.606 345.282 250.481 344.81 250.711 343.979L261.704 304.159C262.018 303.024 260.976 301.981 259.843 302.295L220.072 313.302C219.242 313.532 218.77 314.408 219.035 315.228L221.928 324.19M239.836 342.12L226.302 337.741M239.836 342.12L235.159 356.279C234.7 357.67 232.733 357.663 232.283 356.269L226.302 337.741M239.836 342.12L247.741 318.19C248.131 317.008 247.01 315.885 245.829 316.276L221.928 324.19M226.302 337.741L207.796 331.752C206.404 331.302 206.397 329.332 207.786 328.872L221.928 324.19M226.302 337.741L221.928 324.19" stroke="#0038FF" stroke-width="3.73596" stroke-linejoin="round"/>
</g>
<g filter="url(#filter5_f_229_1903)">
<path d="M239.836 342.12L248.787 345.017C249.606 345.282 250.481 344.81 250.711 343.979L261.704 304.159C262.018 303.024 260.976 301.981 259.843 302.295L220.072 313.302C219.242 313.532 218.77 314.408 219.035 315.228L221.928 324.19M239.836 342.12L226.302 337.741M239.836 342.12L235.159 356.279C234.7 357.67 232.733 357.663 232.283 356.269L226.302 337.741M239.836 342.12L247.741 318.19C248.131 317.008 247.01 315.885 245.829 316.276L221.928 324.19M226.302 337.741L207.796 331.752C206.404 331.302 206.397 329.332 207.786 328.872L221.928 324.19M226.302 337.741L221.928 324.19" stroke="url(#paint5_linear_229_1903)" stroke-width="3.73596" stroke-linejoin="round"/>
</g>
<path d="M239.836 342.12L248.787 345.017C249.606 345.282 250.481 344.81 250.711 343.979L261.704 304.159C262.018 303.024 260.976 301.981 259.843 302.295L220.072 313.302C219.242 313.532 218.77 314.408 219.035 315.228L221.928 324.19M239.836 342.12L226.302 337.741M239.836 342.12L235.159 356.279C234.7 357.67 232.733 357.663 232.283 356.269L226.302 337.741M239.836 342.12L247.741 318.19C248.131 317.008 247.01 315.885 245.829 316.276L221.928 324.19M226.302 337.741L207.796 331.752C206.404 331.302 206.397 329.332 207.786 328.872L221.928 324.19M226.302 337.741L221.928 324.19" stroke="white" stroke-width="2.86701" stroke-linejoin="round"/>
<path d="M218.44 370.6H229.44V372.052H224.71V386H223.17V372.052H218.44V370.6ZM238.662 384.614C237.533 385.714 236.169 386.264 234.57 386.264C232.942 386.264 231.571 385.714 230.456 384.614C229.342 383.5 228.784 382.128 228.784 380.5C228.784 378.872 229.342 377.508 230.456 376.408C231.571 375.294 232.942 374.736 234.57 374.736C236.184 374.736 237.548 375.294 238.662 376.408C239.792 377.508 240.356 378.872 240.356 380.5C240.356 382.114 239.792 383.485 238.662 384.614ZM231.49 383.602C232.326 384.438 233.353 384.856 234.57 384.856C235.788 384.856 236.814 384.438 237.65 383.602C238.486 382.737 238.904 381.703 238.904 380.5C238.904 379.283 238.486 378.256 237.65 377.42C236.814 376.57 235.788 376.144 234.57 376.144C233.353 376.144 232.326 376.57 231.49 377.42C230.654 378.256 230.236 379.283 230.236 380.5C230.236 381.703 230.654 382.737 231.49 383.602ZM248.401 375V376.408H245.233V383.074C245.233 383.676 245.351 384.108 245.585 384.372C245.82 384.622 246.172 384.754 246.641 384.768C247.111 384.768 247.697 384.754 248.401 384.724V386C246.832 386.235 245.666 386.125 244.903 385.67C244.155 385.201 243.781 384.336 243.781 383.074V376.408H241.471V375H243.781V372.36L245.233 371.92V375H248.401ZM259.615 377.156V375H261.067V386H259.615V383.844C258.603 385.458 257.122 386.264 255.171 386.264C253.602 386.264 252.26 385.707 251.145 384.592C250.045 383.478 249.495 382.114 249.495 380.5C249.495 378.887 250.045 377.523 251.145 376.408C252.26 375.294 253.602 374.736 255.171 374.736C257.122 374.736 258.603 375.543 259.615 377.156ZM252.201 383.602C253.037 384.438 254.064 384.856 255.281 384.856C256.499 384.856 257.525 384.438 258.361 383.602C259.197 382.737 259.615 381.703 259.615 380.5C259.615 379.283 259.197 378.256 258.361 377.42C257.525 376.57 256.499 376.144 255.281 376.144C254.064 376.144 253.037 376.57 252.201 377.42C251.365 378.256 250.947 379.283 250.947 380.5C250.947 381.703 251.365 382.737 252.201 383.602ZM265.594 386H264.142V369.94H265.594V386ZM275.319 377.882C275.319 378.733 276.074 379.356 277.585 379.752C278.01 379.855 278.289 379.928 278.421 379.972C278.553 380.002 278.809 380.082 279.191 380.214C279.587 380.332 279.858 380.434 280.005 380.522C280.166 380.61 280.386 380.75 280.665 380.94C280.943 381.116 281.141 381.3 281.259 381.49C281.376 381.666 281.486 381.901 281.589 382.194C281.691 382.473 281.743 382.774 281.743 383.096C281.743 384.035 281.369 384.798 280.621 385.384C279.902 385.971 278.949 386.264 277.761 386.264C276.734 386.264 275.847 386.037 275.099 385.582C274.351 385.113 273.823 384.497 273.515 383.734L274.747 383.008C274.952 383.58 275.319 384.035 275.847 384.372C276.389 384.695 277.027 384.856 277.761 384.856C278.509 384.856 279.117 384.71 279.587 384.416C280.056 384.123 280.291 383.683 280.291 383.096C280.291 382.246 279.535 381.622 278.025 381.226C277.599 381.124 277.321 381.058 277.189 381.028C277.057 380.984 276.793 380.904 276.397 380.786C276.015 380.654 275.744 380.544 275.583 380.456C275.436 380.368 275.223 380.236 274.945 380.06C274.666 379.87 274.468 379.686 274.351 379.51C274.233 379.32 274.123 379.085 274.021 378.806C273.918 378.513 273.867 378.205 273.867 377.882C273.867 376.988 274.219 376.24 274.923 375.638C275.656 375.037 276.558 374.736 277.629 374.736C278.509 374.736 279.286 374.934 279.961 375.33C280.65 375.726 281.156 376.276 281.479 376.98L280.269 377.684C279.858 376.658 278.978 376.144 277.629 376.144C276.969 376.144 276.419 376.298 275.979 376.606C275.539 376.914 275.319 377.34 275.319 377.882ZM291.802 380.764V375H293.254V386H291.802V384.284C290.98 385.604 289.748 386.264 288.106 386.264C286.786 386.264 285.737 385.861 284.96 385.054C284.182 384.233 283.794 383.133 283.794 381.754V375H285.246V381.754C285.246 382.737 285.502 383.5 286.016 384.042C286.544 384.585 287.284 384.856 288.238 384.856C289.338 384.856 290.203 384.512 290.834 383.822C291.479 383.133 291.802 382.114 291.802 380.764ZM302.221 374.736C303.79 374.736 305.125 375.294 306.225 376.408C307.34 377.523 307.897 378.887 307.897 380.5C307.897 382.114 307.34 383.478 306.225 384.592C305.125 385.707 303.79 386.264 302.221 386.264C300.27 386.264 298.789 385.458 297.777 383.844V390.4H296.325V375H297.777V377.156C298.789 375.543 300.27 374.736 302.221 374.736ZM299.031 383.602C299.867 384.438 300.894 384.856 302.111 384.856C303.328 384.856 304.355 384.438 305.191 383.602C306.027 382.737 306.445 381.703 306.445 380.5C306.445 379.283 306.027 378.256 305.191 377.42C304.355 376.57 303.328 376.144 302.111 376.144C300.894 376.144 299.867 376.57 299.031 377.42C298.195 378.256 297.777 379.283 297.777 380.5C297.777 381.703 298.195 382.737 299.031 383.602ZM316.207 374.736C317.777 374.736 319.111 375.294 320.211 376.408C321.326 377.523 321.883 378.887 321.883 380.5C321.883 382.114 321.326 383.478 320.211 384.592C319.111 385.707 317.777 386.264 316.207 386.264C314.257 386.264 312.775 385.458 311.763 383.844V390.4H310.311V375H311.763V377.156C312.775 375.543 314.257 374.736 316.207 374.736ZM313.017 383.602C313.853 384.438 314.88 384.856 316.097 384.856C317.315 384.856 318.341 384.438 319.177 383.602C320.013 382.737 320.431 381.703 320.431 380.5C320.431 379.283 320.013 378.256 319.177 377.42C318.341 376.57 317.315 376.144 316.097 376.144C314.88 376.144 313.853 376.57 313.017 377.42C312.181 378.256 311.763 379.283 311.763 380.5C311.763 381.703 312.181 382.737 313.017 383.602ZM325.75 386H324.298V369.94H325.75V386ZM333.187 384.218L336.751 375H338.291L333.583 387.012C333.143 388.127 332.527 388.985 331.735 389.586C330.958 390.202 330.092 390.474 329.139 390.4V389.036C330.459 389.198 331.464 388.435 332.153 386.748L332.439 386.066L327.511 375H329.051L333.187 384.218ZM342.246 375.99C342.246 376.328 342.129 376.614 341.894 376.848C341.659 377.083 341.373 377.2 341.036 377.2C340.699 377.2 340.413 377.083 340.178 376.848C339.943 376.614 339.826 376.328 339.826 375.99C339.826 375.653 339.943 375.367 340.178 375.132C340.413 374.898 340.699 374.78 341.036 374.78C341.373 374.78 341.659 374.898 341.894 375.132C342.129 375.367 342.246 375.653 342.246 375.99ZM342.246 385.01C342.246 385.348 342.129 385.634 341.894 385.868C341.659 386.103 341.373 386.22 341.036 386.22C340.699 386.22 340.413 386.103 340.178 385.868C339.943 385.634 339.826 385.348 339.826 385.01C339.826 384.673 339.943 384.387 340.178 384.152C340.413 383.918 340.699 383.8 341.036 383.8C341.373 383.8 341.659 383.918 341.894 384.152C342.129 384.387 342.246 384.673 342.246 385.01ZM349.406 372.008L353.476 370.6H354.796V386H353.256V372.294L349.802 373.328L349.406 372.008ZM367.773 384.108C366.761 385.546 365.331 386.264 363.483 386.264C361.649 386.264 360.212 385.546 359.171 384.108C358.159 382.656 357.653 380.72 357.653 378.3C357.653 375.866 358.159 373.937 359.171 372.514C360.212 371.062 361.649 370.336 363.483 370.336C365.331 370.336 366.761 371.062 367.773 372.514C368.799 373.937 369.313 375.866 369.313 378.3C369.313 380.735 368.799 382.671 367.773 384.108ZM360.315 383.074C361.092 384.204 362.148 384.768 363.483 384.768C364.832 384.768 365.881 384.204 366.629 383.074C367.391 381.96 367.773 380.368 367.773 378.3C367.773 376.232 367.391 374.641 366.629 373.526C365.881 372.397 364.832 371.832 363.483 371.832C362.148 371.832 361.092 372.397 360.315 373.526C359.567 374.656 359.193 376.247 359.193 378.3C359.193 380.354 359.567 381.945 360.315 383.074ZM381.63 384.108C380.618 385.546 379.188 386.264 377.34 386.264C375.507 386.264 374.069 385.546 373.028 384.108C372.016 382.656 371.51 380.72 371.51 378.3C371.51 375.866 372.016 373.937 373.028 372.514C374.069 371.062 375.507 370.336 377.34 370.336C379.188 370.336 380.618 371.062 381.63 372.514C382.657 373.937 383.17 375.866 383.17 378.3C383.17 380.735 382.657 382.671 381.63 384.108ZM374.172 383.074C374.949 384.204 376.005 384.768 377.34 384.768C378.689 384.768 379.738 384.204 380.486 383.074C381.249 381.96 381.63 380.368 381.63 378.3C381.63 376.232 381.249 374.641 380.486 373.526C379.738 372.397 378.689 371.832 377.34 371.832C376.005 371.832 374.949 372.397 374.172 373.526C373.424 374.656 373.05 376.247 373.05 378.3C373.05 380.354 373.424 381.945 374.172 383.074ZM387.342 385.01C387.342 385.348 387.224 385.634 386.99 385.868C386.755 386.103 386.469 386.22 386.132 386.22C385.794 386.22 385.508 386.103 385.274 385.868C385.039 385.634 384.922 385.348 384.922 385.01C384.922 384.673 385.039 384.387 385.274 384.152C385.508 383.918 385.794 383.8 386.132 383.8C386.469 383.8 386.755 383.918 386.99 384.152C387.224 384.387 387.342 384.673 387.342 385.01ZM399.226 384.108C398.214 385.546 396.784 386.264 394.936 386.264C393.103 386.264 391.665 385.546 390.624 384.108C389.612 382.656 389.106 380.72 389.106 378.3C389.106 375.866 389.612 373.937 390.624 372.514C391.665 371.062 393.103 370.336 394.936 370.336C396.784 370.336 398.214 371.062 399.226 372.514C400.253 373.937 400.766 375.866 400.766 378.3C400.766 380.735 400.253 382.671 399.226 384.108ZM391.768 383.074C392.545 384.204 393.601 384.768 394.936 384.768C396.285 384.768 397.334 384.204 398.082 383.074C398.845 381.96 399.226 380.368 399.226 378.3C399.226 376.232 398.845 374.641 398.082 373.526C397.334 372.397 396.285 371.832 394.936 371.832C393.601 371.832 392.545 372.397 391.768 373.526C391.02 374.656 390.646 376.247 390.646 378.3C390.646 380.354 391.02 381.945 391.768 383.074ZM413.083 384.108C412.071 385.546 410.641 386.264 408.793 386.264C406.96 386.264 405.523 385.546 404.481 384.108C403.469 382.656 402.963 380.72 402.963 378.3C402.963 375.866 403.469 373.937 404.481 372.514C405.523 371.062 406.96 370.336 408.793 370.336C410.641 370.336 412.071 371.062 413.083 372.514C414.11 373.937 414.623 375.866 414.623 378.3C414.623 380.735 414.11 382.671 413.083 384.108ZM405.625 383.074C406.403 384.204 407.459 384.768 408.793 384.768C410.143 384.768 411.191 384.204 411.939 383.074C412.702 381.96 413.083 380.368 413.083 378.3C413.083 376.232 412.702 374.641 411.939 373.526C411.191 372.397 410.143 371.832 408.793 371.832C407.459 371.832 406.403 372.397 405.625 373.526C404.877 374.656 404.503 376.247 404.503 378.3C404.503 380.354 404.877 381.945 405.625 383.074ZM426.941 384.108C425.929 385.546 424.499 386.264 422.651 386.264C420.817 386.264 419.38 385.546 418.339 384.108C417.327 382.656 416.821 380.72 416.821 378.3C416.821 375.866 417.327 373.937 418.339 372.514C419.38 371.062 420.817 370.336 422.651 370.336C424.499 370.336 425.929 371.062 426.941 372.514C427.967 373.937 428.481 375.866 428.481 378.3C428.481 380.735 427.967 382.671 426.941 384.108ZM419.483 383.074C420.26 384.204 421.316 384.768 422.651 384.768C424 384.768 425.049 384.204 425.797 383.074C426.559 381.96 426.941 380.368 426.941 378.3C426.941 376.232 426.559 374.641 425.797 373.526C425.049 372.397 424 371.832 422.651 371.832C421.316 371.832 420.26 372.397 419.483 373.526C418.735 374.656 418.361 376.247 418.361 378.3C418.361 380.354 418.735 381.945 419.483 383.074ZM432.652 385.01C432.652 385.348 432.535 385.634 432.3 385.868C432.065 386.103 431.779 386.22 431.442 386.22C431.105 386.22 430.819 386.103 430.584 385.868C430.349 385.634 430.232 385.348 430.232 385.01C430.232 384.673 430.349 384.387 430.584 384.152C430.819 383.918 431.105 383.8 431.442 383.8C431.779 383.8 432.065 383.918 432.3 384.152C432.535 384.387 432.652 384.673 432.652 385.01ZM444.536 384.108C443.524 385.546 442.094 386.264 440.246 386.264C438.413 386.264 436.976 385.546 435.934 384.108C434.922 382.656 434.416 380.72 434.416 378.3C434.416 375.866 434.922 373.937 435.934 372.514C436.976 371.062 438.413 370.336 440.246 370.336C442.094 370.336 443.524 371.062 444.536 372.514C445.563 373.937 446.076 375.866 446.076 378.3C446.076 380.735 445.563 382.671 444.536 384.108ZM437.078 383.074C437.856 384.204 438.912 384.768 440.246 384.768C441.596 384.768 442.644 384.204 443.392 383.074C444.155 381.96 444.536 380.368 444.536 378.3C444.536 376.232 444.155 374.641 443.392 373.526C442.644 372.397 441.596 371.832 440.246 371.832C438.912 371.832 437.856 372.397 437.078 373.526C436.33 374.656 435.956 376.247 435.956 378.3C435.956 380.354 436.33 381.945 437.078 383.074ZM458.394 384.108C457.382 385.546 455.952 386.264 454.104 386.264C452.27 386.264 450.833 385.546 449.792 384.108C448.78 382.656 448.274 380.72 448.274 378.3C448.274 375.866 448.78 373.937 449.792 372.514C450.833 371.062 452.27 370.336 454.104 370.336C455.952 370.336 457.382 371.062 458.394 372.514C459.42 373.937 459.934 375.866 459.934 378.3C459.934 380.735 459.42 382.671 458.394 384.108ZM450.936 383.074C451.713 384.204 452.769 384.768 454.104 384.768C455.453 384.768 456.502 384.204 457.25 383.074C458.012 381.96 458.394 380.368 458.394 378.3C458.394 376.232 458.012 374.641 457.25 373.526C456.502 372.397 455.453 371.832 454.104 371.832C452.769 371.832 451.713 372.397 450.936 373.526C450.188 374.656 449.814 376.247 449.814 378.3C449.814 380.354 450.188 381.945 450.936 383.074ZM472.251 384.108C471.239 385.546 469.809 386.264 467.961 386.264C466.128 386.264 464.691 385.546 463.649 384.108C462.637 382.656 462.131 380.72 462.131 378.3C462.131 375.866 462.637 373.937 463.649 372.514C464.691 371.062 466.128 370.336 467.961 370.336C469.809 370.336 471.239 371.062 472.251 372.514C473.278 373.937 473.791 375.866 473.791 378.3C473.791 380.735 473.278 382.671 472.251 384.108ZM464.793 383.074C465.571 384.204 466.627 384.768 467.961 384.768C469.311 384.768 470.359 384.204 471.107 383.074C471.87 381.96 472.251 380.368 472.251 378.3C472.251 376.232 471.87 374.641 471.107 373.526C470.359 372.397 469.311 371.832 467.961 371.832C466.627 371.832 465.571 372.397 464.793 373.526C464.045 374.656 463.671 376.247 463.671 378.3C463.671 380.354 464.045 381.945 464.793 383.074Z" fill="white"/>
<path d="M349.551 85.0124C418.586 85.6846 484.565 113.578 533.148 162.628C581.731 211.679 608.99 277.923 609 346.961C609.01 415.999 581.771 482.251 533.203 531.317C484.634 580.382 418.663 608.294 349.629 608.987L349.314 577.598C410.077 576.989 468.145 552.42 510.894 509.234C553.643 466.047 577.619 407.733 577.61 346.966C577.601 286.199 553.608 227.892 510.846 184.718C468.084 141.544 410.009 116.993 349.245 116.401L349.551 85.0124Z" fill="#C112FF"/>
<path d="M344.342 608.987C290.897 608.444 238.897 591.57 195.317 560.626L210.485 539.264C249.707 567.113 296.508 582.3 344.608 582.788L344.342 608.987Z" fill="#0055FF"/>
<path d="M188.084 561.558C154.6 536.757 127.384 504.463 108.616 467.26C89.8479 430.057 80.0477 388.977 79.9997 347.308C79.9516 305.639 89.657 264.537 108.339 227.291C127.022 190.044 154.162 157.688 187.59 132.81L209.758 162.596C180.979 184.014 157.613 211.871 141.529 243.938C125.444 276.005 117.088 311.391 117.13 347.265C117.171 383.14 125.608 418.507 141.767 450.536C157.925 482.565 181.356 510.369 210.184 531.721L188.084 561.558Z" fill="#19DC5D"/>
<path d="M194.814 133.731C238.503 102.555 290.713 85.5493 344.382 85.0131L344.644 111.212C296.342 111.694 249.353 127 210.033 155.058L194.814 133.731Z" fill="#FFA012"/>
<path d="M419.747 104.517L424.939 106.205C426.739 106.791 428.032 107.926 428.815 109.611C429.604 111.284 429.694 113.052 429.088 114.916C428.486 116.767 427.37 118.15 425.741 119.064C424.12 119.953 422.409 120.104 420.609 119.519L415.416 117.83L419.747 104.517ZM417.73 116.732L421.153 117.845C422.51 118.286 423.774 118.172 424.945 117.501C426.121 116.818 426.938 115.773 427.395 114.365C427.853 112.958 427.808 111.632 427.259 110.388C426.706 109.157 425.751 108.32 424.395 107.879L420.971 106.766L417.73 116.732Z" fill="white"/>
<path d="M440.123 126.642L438.279 125.922L438.359 122.582L432.491 120.29L430.287 122.801L428.442 122.08L438.397 110.938L440.353 111.702L440.123 126.642ZM438.559 113.384L433.72 118.902L438.396 120.728L438.559 113.384Z" fill="white"/>
<path d="M444.298 120.753C445.15 118.914 446.505 117.654 448.364 116.972C450.228 116.278 452.08 116.357 453.919 117.209C455.758 118.06 457.016 119.422 457.692 121.293C458.386 123.157 458.307 125.009 457.455 126.848C456.609 128.674 455.247 129.932 453.371 130.62C451.507 131.314 449.655 131.236 447.816 130.384C445.977 129.532 444.719 128.171 444.043 126.3C443.372 124.417 443.457 122.568 444.298 120.753ZM455.767 126.066C456.417 124.662 456.489 123.27 455.983 121.89C455.506 120.508 454.566 119.492 453.162 118.842C451.771 118.197 450.382 118.134 448.996 118.653C447.621 119.177 446.612 120.135 445.968 121.526C445.329 122.906 445.251 124.295 445.734 125.694C446.241 127.075 447.19 128.088 448.581 128.732C449.984 129.382 451.364 129.449 452.721 128.931C454.113 128.4 455.128 127.445 455.767 126.066Z" fill="white"/>
<path d="M467.393 124.146L476.187 129.113L475.322 130.645L471.717 128.61L465.698 139.268L464.096 138.363L470.115 127.705L466.527 125.679L467.393 124.146Z" fill="white"/>
<path d="M480.236 148.162L478.499 147.055L478.73 140.848L475.947 139.075L473.067 143.595L471.498 142.596L479.021 130.788L483.744 133.797C484.756 134.442 485.392 135.353 485.653 136.532C485.922 137.699 485.734 138.788 485.089 139.8C484.602 140.565 483.927 141.115 483.065 141.451C482.184 141.791 481.316 141.863 480.462 141.666L480.236 148.162ZM482.809 135.265L479.654 133.255L476.85 137.658L480.004 139.667C480.589 140.04 481.22 140.141 481.897 139.972C482.585 139.81 483.126 139.419 483.52 138.801C483.914 138.182 484.036 137.532 483.885 136.851C483.752 136.166 483.393 135.637 482.809 135.265Z" fill="white"/>
<path d="M487.368 145.563L484.802 149.187L490.106 152.944L489.088 154.38L482.267 149.548L490.359 138.123L497.099 142.898L496.082 144.334L490.86 140.635L488.374 144.144L493.189 147.554L492.183 148.974L487.368 145.563Z" fill="white"/>
<path d="M500.304 163.103L498.751 161.875L499.804 158.705L494.861 154.798L492.02 156.555L490.467 155.327L503.243 147.581L504.891 148.883L500.304 163.103ZM502.683 149.967L496.443 153.83L500.381 156.943L502.683 149.967Z" fill="white"/>
<path d="M504.902 167.467C503.921 166.605 503.278 165.64 502.973 164.573C502.687 163.505 502.76 162.442 503.193 161.384L505.002 161.75C504.285 163.374 504.662 164.833 506.134 166.127C506.845 166.752 507.519 167.086 508.154 167.13C508.8 167.183 509.343 166.959 509.783 166.459C510.215 165.968 510.355 165.425 510.203 164.83C510.065 164.301 509.662 163.476 508.995 162.357L508.279 161.142C508.138 160.858 507.962 160.473 507.751 159.986C507.559 159.497 507.462 159.093 507.46 158.771C507.442 157.903 507.737 157.124 508.344 156.433C509.154 155.512 510.109 155.072 511.207 155.115C512.324 155.138 513.342 155.554 514.264 156.364C515.085 157.086 515.625 157.925 515.885 158.881C516.145 159.837 516.118 160.808 515.803 161.791L514.038 161.437C514.538 159.96 514.217 158.719 513.075 157.716C512.504 157.214 511.921 156.949 511.324 156.921C510.727 156.894 510.217 157.12 509.794 157.601C509.389 158.062 509.246 158.557 509.366 159.088C509.486 159.638 509.837 160.39 510.418 161.344L510.862 162.081C511.088 162.511 511.212 162.744 511.233 162.78C511.448 163.182 511.653 163.655 511.849 164.2C511.987 164.588 512.055 165.056 512.052 165.604C512.095 166.263 511.808 166.942 511.192 167.643C510.382 168.565 509.399 169.006 508.244 168.967C507.088 168.909 505.974 168.409 504.902 167.467Z" fill="white"/>
<path d="M513.815 168.77L520.309 162.113L521.641 163.412L515.202 170.011C514.504 170.727 514.164 171.495 514.184 172.315C514.213 173.145 514.614 173.936 515.387 174.691C516.16 175.445 516.957 175.822 517.777 175.821C518.607 175.829 519.371 175.476 520.069 174.76L526.508 168.161L527.825 169.445L521.331 176.102C520.269 177.19 519.078 177.714 517.758 177.674C516.437 177.634 515.223 177.073 514.116 175.993C513 174.904 512.405 173.7 512.332 172.381C512.259 171.061 512.753 169.858 513.815 168.77Z" fill="white"/>
<path d="M527.036 189.15L525.643 187.632L527.47 181.695L525.239 179.263L521.29 182.887L520.032 181.516L530.348 172.051L534.134 176.177C534.945 177.062 535.325 178.107 535.273 179.312C535.231 180.509 534.768 181.513 533.884 182.324C533.216 182.937 532.422 183.295 531.502 183.397C530.563 183.498 529.706 183.343 528.931 182.932L527.036 189.15ZM532.852 177.354L530.323 174.598L526.477 178.127L529.005 180.883C529.474 181.394 530.057 181.655 530.755 181.666C531.462 181.687 532.086 181.45 532.626 180.954C533.166 180.458 533.452 179.862 533.482 179.164C533.53 178.468 533.32 177.865 532.852 177.354Z" fill="white"/>
<path d="M545.113 188.988L546.432 190.595L536.839 192.053L532.464 195.645L531.284 194.207L535.674 190.603L538.971 181.506L540.29 183.113L537.631 190.213L545.113 188.988Z" fill="white"/>
<path d="M543.376 197.132C543.158 196.845 543.073 196.525 543.121 196.17C543.169 195.815 543.337 195.528 543.623 195.31C543.909 195.092 544.23 195.007 544.585 195.055C544.94 195.103 545.227 195.27 545.445 195.557C545.671 195.854 545.756 196.174 545.7 196.519C545.652 196.874 545.485 197.16 545.198 197.379C544.912 197.597 544.591 197.682 544.236 197.634C543.889 197.596 543.603 197.429 543.376 197.132ZM537.123 201.894C536.905 201.607 536.82 201.287 536.868 200.932C536.916 200.577 537.083 200.29 537.37 200.072C537.656 199.854 537.977 199.769 538.332 199.817C538.687 199.865 538.973 200.032 539.192 200.319C539.418 200.616 539.503 200.936 539.447 201.281C539.399 201.636 539.231 201.922 538.945 202.14C538.658 202.358 538.338 202.444 537.983 202.395C537.636 202.358 537.349 202.191 537.123 201.894Z" fill="white"/>
<path d="M553.74 212.43C553.837 213.151 553.751 213.826 553.481 214.454C553.212 215.083 552.772 215.601 552.163 216.009C551.231 216.631 550.231 216.826 549.162 216.594C548.093 216.362 547.244 215.774 546.615 214.832L543.26 209.809L554.902 202.033L558.012 206.69C558.627 207.611 558.837 208.585 558.642 209.613C558.454 210.652 557.911 211.472 557.013 212.072C555.971 212.768 554.88 212.887 553.74 212.43ZM556.565 207.657L554.488 204.547L550.929 206.924L553.006 210.034C553.332 210.522 553.778 210.817 554.344 210.92C554.91 211.023 555.442 210.908 555.941 210.575C556.429 210.249 556.73 209.8 556.844 209.226C556.977 208.657 556.884 208.133 556.565 207.657ZM545.74 210.389L548.062 213.865C548.41 214.387 548.885 214.702 549.488 214.813C550.091 214.923 550.658 214.801 551.191 214.445C551.712 214.097 552.033 213.618 552.154 213.008C552.291 212.42 552.185 211.865 551.837 211.344L549.515 207.868L545.74 210.389Z" fill="white"/>
<path d="M556.039 216.344C557.787 215.318 559.619 215.055 561.535 215.554C563.462 216.046 564.939 217.166 565.964 218.914C566.99 220.662 567.248 222.497 566.737 224.42C566.245 226.347 565.125 227.824 563.377 228.85C561.641 229.869 559.805 230.126 557.871 229.623C555.944 229.13 554.467 228.01 553.441 226.262C552.416 224.514 552.158 222.679 552.668 220.756C553.19 218.827 554.314 217.356 556.039 216.344ZM562.436 227.245C563.77 226.463 564.622 225.36 564.993 223.936C565.388 222.529 565.195 221.159 564.412 219.825C563.636 218.502 562.531 217.659 561.096 217.295C559.668 216.943 558.292 217.155 556.97 217.931C555.659 218.7 554.803 219.797 554.403 221.223C554.032 222.646 554.235 224.019 555.011 225.341C555.794 226.675 556.89 227.516 558.3 227.864C559.746 228.221 561.125 228.015 562.436 227.245Z" fill="white"/>
<path d="M562.516 232.195L570.813 227.992L571.653 229.651L563.428 233.818C562.536 234.27 561.967 234.887 561.721 235.669C561.48 236.464 561.604 237.343 562.092 238.306C562.58 239.27 563.213 239.883 563.989 240.148C564.772 240.424 565.609 240.336 566.501 239.884L574.726 235.718L575.558 237.359L567.261 241.562C565.905 242.248 564.609 242.36 563.372 241.895C562.136 241.43 561.168 240.508 560.469 239.129C559.764 237.737 559.59 236.405 559.947 235.133C560.304 233.861 561.16 232.882 562.516 232.195Z" fill="white"/>
<path d="M570.972 252.621L580.529 248.418L581.278 250.121L568.462 255.757L567.859 254.384L574.535 243.582L564.96 247.793L564.211 246.091L577.026 240.454L577.63 241.827L570.972 252.621Z" fill="white"/>
<path d="M582.521 253.157L586.076 262.61L584.428 263.23L582.971 259.355L571.515 263.663L570.867 261.941L582.324 257.632L580.873 253.776L582.521 253.157Z" fill="white"/>
<path d="M589.573 273.244L590.212 275.224L580.752 273.065L575.365 274.804L574.794 273.034L580.2 271.289L586.6 264.032L587.239 266.012L582.163 271.643L589.573 273.244Z" fill="white"/>
<path d="M579.463 281.265L580.007 283.19L574.976 283.261L574.568 281.818L579.463 281.265Z" fill="white"/>
<path d="M596.169 299.839L596.597 301.894L582.892 304.752L582.517 302.951L593.226 300.718L584.832 297.79L584.783 297.555L591.288 291.52L580.598 293.749L580.218 291.928L593.923 289.07L594.352 291.126L588.018 297.003L596.169 299.839Z" fill="white"/>
<path d="M584.982 318.665L584.693 316.707L587.633 315.121L586.715 308.888L583.443 308.218L583.154 306.259L597.765 309.383L598.071 311.461L584.982 318.665ZM595.721 310.736L588.53 309.268L589.261 314.234L595.721 310.736Z" fill="white"/>
<path d="M586.103 330.858L585.918 328.806L590.973 325.196L590.675 321.909L585.337 322.393L585.169 320.54L599.112 319.278L599.617 324.855C599.725 326.05 599.393 327.111 598.62 328.038C597.86 328.964 596.883 329.481 595.688 329.589C594.785 329.67 593.937 329.473 593.144 328.996C592.337 328.506 591.75 327.863 591.383 327.067L586.103 330.858ZM597.884 325.012L597.547 321.287L592.348 321.758L592.685 325.483C592.748 326.173 593.053 326.735 593.601 327.167C594.15 327.613 594.79 327.802 595.52 327.736C596.251 327.67 596.839 327.369 597.286 326.833C597.747 326.31 597.947 325.703 597.884 325.012Z" fill="white"/>
<path d="M593.595 337.129L586.64 343.775L586.555 341.497L593.042 335.208L586.327 335.461L586.257 333.603L600.247 333.075L600.317 334.934L594.001 335.172L600.537 340.77L600.623 343.048L593.595 337.129Z" fill="white"/>
<path d="M592.8 347.701L588.36 347.65L588.286 354.15L586.526 354.13L586.621 345.77L600.62 345.93L600.526 354.19L598.766 354.17L598.839 347.77L594.539 347.721L594.472 353.62L592.732 353.601L592.8 347.701Z" fill="white"/>
<path d="M600.468 356.664L599.854 366.746L598.097 366.639L598.349 362.506L586.131 361.763L586.243 359.926L598.46 360.67L598.711 356.557L600.468 356.664Z" fill="white"/>
<path d="M585.631 368.336L599.567 369.665L599.391 371.517L585.454 370.187L585.631 368.336Z" fill="white"/>
<path d="M587.502 382.712L597.844 384.14L597.59 385.983L583.721 384.067L583.926 382.581L595.273 376.88L584.912 375.449L585.166 373.607L599.034 375.522L598.829 377.008L587.502 382.712Z" fill="white"/>
<path d="M588.734 395.169L587.352 402.032L586.528 401.866C584.738 401.505 583.371 400.591 582.429 399.122C581.5 397.657 581.24 395.911 581.648 393.885C582.069 391.794 583.104 390.2 584.753 389.104C586.425 388.026 588.248 387.686 590.222 388.084C592.196 388.481 593.739 389.499 594.85 391.138C595.959 392.789 596.306 394.647 595.89 396.713C595.637 397.967 595.096 399.069 594.266 400.017C593.433 400.978 592.471 401.634 591.38 401.986L590.775 400.232C591.599 399.99 592.313 399.515 592.918 398.807C593.536 398.102 593.94 397.279 594.129 396.338C594.448 394.756 594.191 393.365 593.358 392.163C592.528 390.949 591.362 390.19 589.859 389.888C588.356 389.585 586.986 389.833 585.751 390.631C584.526 391.445 583.752 392.656 583.428 394.264C583.157 395.61 583.263 396.774 583.745 397.755C584.238 398.752 585.014 399.459 586.072 399.877L587.087 394.838L588.734 395.169Z" fill="white"/>
<path d="M581.712 404.246L581.235 406.188L576.826 403.765L577.184 402.308L581.712 404.246Z" fill="white"/>
<path d="M582.091 418.526L577.853 417.202L575.914 423.406L574.234 422.881L576.728 414.902L590.09 419.077L587.627 426.961L585.947 426.437L587.856 420.328L583.751 419.045L581.992 424.677L580.331 424.158L582.091 418.526Z" fill="white"/>
<path d="M570.838 431.541C571.583 429.542 572.851 428.143 574.643 427.346C576.422 426.543 578.273 426.501 580.197 427.218C582.121 427.935 583.493 429.18 584.313 430.951C585.145 432.727 585.188 434.614 584.443 436.613C584 437.8 583.303 438.792 582.351 439.59C581.399 440.388 580.331 440.886 579.147 441.085L578.832 439.239C579.696 439.134 580.481 438.786 581.185 438.195C581.897 437.621 582.421 436.884 582.756 435.984C583.324 434.46 583.298 433.042 582.678 431.729C582.07 430.421 581.029 429.492 579.555 428.942C578.093 428.397 576.704 428.42 575.388 429.011C574.06 429.597 573.111 430.652 572.543 432.176C572.207 433.076 572.115 433.973 572.265 434.869C572.423 435.782 572.788 436.558 573.36 437.198L571.932 438.395C571.162 437.482 570.673 436.41 570.463 435.179C570.261 433.965 570.386 432.752 570.838 431.541Z" fill="white"/>
<path d="M574.787 441.58C576.635 442.411 577.911 443.752 578.615 445.603C579.33 447.459 579.272 449.311 578.442 451.16C577.611 453.009 576.264 454.282 574.401 454.98C572.545 455.695 570.693 455.637 568.844 454.807C567.008 453.982 565.734 452.635 565.024 450.766C564.309 448.91 564.367 447.058 565.197 445.209C566.028 443.36 567.375 442.087 569.238 441.389C571.113 440.697 572.962 440.761 574.787 441.58ZM569.606 453.11C571.017 453.744 572.41 453.8 573.785 453.277C575.161 452.785 576.166 451.833 576.8 450.422C577.428 449.024 577.475 447.634 576.941 446.254C576.401 444.886 575.431 443.887 574.033 443.259C572.646 442.636 571.256 442.574 569.862 443.073C568.487 443.596 567.486 444.556 566.857 445.955C566.223 447.366 566.173 448.746 566.706 450.097C567.253 451.483 568.22 452.487 569.606 453.11Z" fill="white"/>
<path d="M559.08 457.819C559.683 456.66 560.466 455.805 561.429 455.254C562.398 454.721 563.447 454.538 564.578 454.705L564.656 456.549C562.907 456.241 561.581 456.956 560.676 458.695C560.239 459.535 560.075 460.269 560.184 460.896C560.288 461.536 560.635 462.01 561.226 462.318C561.806 462.619 562.366 462.625 562.908 462.336C563.389 462.075 564.093 461.487 565.02 460.572L566.029 459.586C566.271 459.381 566.603 459.118 567.026 458.797C567.454 458.494 567.824 458.303 568.135 458.224C568.974 457.999 569.801 458.099 570.617 458.524C571.705 459.09 572.36 459.911 572.581 460.988C572.826 462.078 572.666 463.167 572.099 464.255C571.595 465.225 570.909 465.95 570.043 466.431C569.176 466.912 568.228 467.118 567.197 467.047L567.119 465.248C568.673 465.38 569.801 464.772 570.503 463.424C570.853 462.75 570.971 462.12 570.855 461.533C570.739 460.947 570.397 460.506 569.83 460.211C569.286 459.928 568.77 459.907 568.283 460.15C567.778 460.398 567.132 460.919 566.344 461.711L565.735 462.319C565.372 462.641 565.175 462.816 565.145 462.846C564.806 463.15 564.395 463.463 563.913 463.783C563.569 464.01 563.131 464.188 562.598 464.317C561.969 464.515 561.24 464.399 560.412 463.968C559.324 463.402 558.661 462.554 558.423 461.423C558.202 460.286 558.422 459.085 559.08 457.819Z" fill="white"/>
<path d="M563.557 478.924L562.5 480.716L557.838 472.205L552.963 469.329L553.909 467.727L558.801 470.614L568.477 470.587L567.42 472.379L559.839 472.318L563.557 478.924Z" fill="white"/>
<path d="M546.8 478.674C547.519 477.583 548.386 476.812 549.4 476.363C550.418 475.932 551.481 475.857 552.588 476.14L552.477 477.982C550.769 477.496 549.376 478.072 548.298 479.708C547.778 480.499 547.54 481.212 547.584 481.848C547.621 482.495 547.918 483.002 548.474 483.369C549.02 483.728 549.577 483.791 550.145 483.559C550.651 483.349 551.411 482.836 552.427 482.02L553.532 481.143C553.793 480.964 554.151 480.737 554.604 480.461C555.061 480.203 555.449 480.051 555.766 480.005C556.624 479.867 557.436 480.051 558.205 480.557C559.229 481.231 559.796 482.116 559.906 483.21C560.038 484.318 559.767 485.385 559.092 486.41C558.491 487.323 557.734 487.974 556.823 488.364C555.912 488.754 554.947 488.861 553.929 488.685L554.036 486.887C555.568 487.178 556.753 486.689 557.589 485.42C558.007 484.785 558.188 484.17 558.133 483.575C558.078 482.98 557.783 482.506 557.249 482.154C556.736 481.817 556.226 481.744 555.716 481.935C555.189 482.131 554.492 482.582 553.627 483.29L552.959 483.831C552.565 484.115 552.351 484.269 552.318 484.295C551.95 484.564 551.509 484.832 550.997 485.102C550.632 485.292 550.178 485.424 549.635 485.498C548.988 485.631 548.275 485.441 547.496 484.927C546.471 484.253 545.899 483.34 545.777 482.191C545.675 481.038 546.016 479.866 546.8 478.674Z" fill="white"/>
<path d="M554.71 492.48L548.748 500.633L547.328 499.594L549.771 496.252L539.891 489.027L540.977 487.542L550.858 494.767L553.289 491.441L554.71 492.48Z" fill="white"/>
<path d="M539.719 499.466L536.267 496.674L532.18 501.727L530.811 500.621L536.069 494.121L546.954 502.925L541.759 509.347L540.391 508.24L544.416 503.264L541.072 500.56L537.362 505.147L536.009 504.053L539.719 499.466Z" fill="white"/>
<path d="M532.121 520.229L530.711 521.786L520.335 512.387L521.57 511.024L529.679 518.368L527.106 509.858L527.267 509.68L535.974 511.387L527.881 504.057L529.129 502.678L539.506 512.077L538.096 513.633L529.617 511.971L532.121 520.229Z" fill="white"/>
<path d="M517.981 534.126L516.777 532.842L521.299 528.6L518.193 525.289L513.86 529.353L512.656 528.07L516.988 524.006L512.925 519.673L514.281 518.401L523.859 528.611L517.981 534.126Z" fill="white"/>
<path d="M509.296 529.467L515.302 536.568L513.882 537.769L507.928 530.729C507.282 529.965 506.55 529.554 505.732 529.495C504.903 529.445 504.077 529.769 503.252 530.466C502.428 531.163 501.977 531.921 501.899 532.737C501.811 533.562 502.09 534.357 502.736 535.12L508.69 542.16L507.285 543.348L501.279 536.247C500.298 535.087 499.89 533.851 500.056 532.541C500.223 531.23 500.896 530.075 502.077 529.076C503.268 528.069 504.524 527.592 505.844 527.646C507.164 527.699 508.315 528.306 509.296 529.467Z" fill="white"/>
<path d="M491.379 542.416L497.674 550.745L496.19 551.866L487.749 540.697L488.946 539.793L500.997 543.797L494.69 535.452L496.174 534.33L504.615 545.5L503.418 546.404L491.379 542.416Z" fill="white"/>
<path d="M492.677 554.403L488.125 557.419C486.547 558.465 484.854 558.771 483.047 558.337C481.247 557.914 479.806 556.886 478.724 555.252C477.648 553.629 477.259 551.896 477.557 550.051C477.869 548.229 478.814 546.795 480.392 545.749L484.943 542.733L492.677 554.403ZM484.365 545.228L481.364 547.216C480.175 548.004 479.479 549.065 479.275 550.4C479.079 551.745 479.39 553.035 480.207 554.269C481.025 555.502 482.091 556.291 483.407 556.635C484.715 556.968 485.964 556.74 487.153 555.952L490.154 553.964L484.365 545.228Z" fill="white"/>
<path d="M472.952 552.936L471.242 553.973L469.833 549.144L471.115 548.366L472.952 552.936Z" fill="white"/>
<path d="M464.029 562.837L461.951 558.913L456.207 561.956L455.383 560.4L462.771 556.488L469.323 568.86L462.024 572.725L461.2 571.17L466.856 568.175L464.843 564.375L459.629 567.136L458.815 565.598L464.029 562.837Z" fill="white"/>
<path d="M459.81 573.852L450.671 578.152L449.921 576.559L453.667 574.797L448.456 563.722L450.121 562.938L455.332 574.013L459.06 572.259L459.81 573.852Z" fill="white"/>
<path d="M436.602 568.586C438.579 567.784 440.467 567.774 442.265 568.555C444.059 569.324 445.342 570.66 446.113 572.563C446.885 574.466 446.895 576.318 446.143 578.119C445.397 579.933 444.035 581.24 442.058 582.042C440.884 582.518 439.682 582.674 438.45 582.512C437.219 582.349 436.13 581.899 435.183 581.161L436.331 579.681C436.992 580.247 437.779 580.59 438.691 580.709C439.595 580.846 440.492 580.734 441.382 580.374C442.889 579.762 443.917 578.784 444.465 577.44C445.018 576.108 444.999 574.713 444.408 573.255C443.822 571.809 442.867 570.801 441.542 570.23C440.212 569.647 438.793 569.661 437.286 570.272C436.396 570.633 435.672 571.171 435.113 571.887C434.547 572.62 434.222 573.414 434.137 574.269L432.29 574.025C432.442 572.841 432.902 571.755 433.667 570.769C434.425 569.799 435.403 569.072 436.602 568.586Z" fill="white"/>
<path d="M315.481 600.416L317.08 588.281L311.091 587.492L311.321 585.747L319.154 586.779L317.325 600.659L315.481 600.416Z" fill="white"/>
<path d="M308.759 585.313L306.452 599.121L304.618 598.815L306.924 585.006L308.759 585.313Z" fill="white"/>
<path d="M288.548 588.484C288.943 586.605 289.931 585.117 291.512 584.019L290.322 582.194L291.814 581.323L293.03 583.214C294.392 582.697 295.765 582.584 297.148 582.876C299.105 583.288 300.63 584.331 301.721 586.005C302.813 587.68 303.151 589.502 302.737 591.472C302.322 593.442 301.277 594.973 299.603 596.065C297.929 597.156 296.113 597.496 294.156 597.084C292.199 596.672 290.674 595.629 289.583 593.954C288.481 592.264 288.136 590.441 288.548 588.484ZM296.773 584.657C295.821 584.456 294.913 584.496 294.05 584.778L296.208 588.114L294.721 588.966L292.496 585.554C291.374 586.354 290.665 587.458 290.368 588.867C290.052 590.367 290.301 591.742 291.114 592.989C291.915 594.234 293.052 595.012 294.527 595.323C296.001 595.633 297.362 595.382 298.61 594.568C299.847 593.738 300.623 592.58 300.936 591.093C301.249 589.605 301.006 588.239 300.205 586.994C299.391 585.746 298.247 584.967 296.773 584.657Z" fill="white"/>
<path d="M286.665 585.57L284.198 594.537L282.405 594.044L284.85 585.154C285.116 584.19 285.041 583.354 284.628 582.645C284.201 581.933 283.467 581.434 282.426 581.148C281.385 580.861 280.505 580.917 279.788 581.314C279.057 581.707 278.559 582.386 278.294 583.351L275.849 592.24L274.074 591.752L276.541 582.785C276.944 581.32 277.733 580.285 278.909 579.682C280.084 579.079 281.418 578.983 282.909 579.393C284.413 579.806 285.516 580.573 286.217 581.693C286.919 582.812 287.068 584.105 286.665 585.57Z" fill="white"/>
<path d="M274.854 577.282L270.583 590.614L268.811 590.047L273.083 576.714L274.854 577.282Z" fill="white"/>
<path d="M264.918 588.818L259.792 586.938C258.014 586.286 256.765 585.104 256.044 583.391C255.318 581.691 255.293 579.92 255.968 578.08C256.638 576.252 257.804 574.912 259.466 574.059C261.119 573.23 262.834 573.142 264.612 573.794L269.738 575.674L264.918 588.818ZM267.386 576.686L264.006 575.446C262.666 574.955 261.399 575.023 260.203 575.65C259.003 576.289 258.148 577.303 257.639 578.693C257.129 580.082 257.126 581.409 257.628 582.673C258.135 583.924 259.058 584.795 260.398 585.286L263.778 586.525L267.386 576.686Z" fill="white"/>
<path d="M255.383 570.205L249.977 583.12L248.262 582.401L253.667 569.487L255.383 570.205Z" fill="white"/>
<path d="M245.549 581.286L236.368 577.075L237.102 575.476L240.865 577.201L245.967 566.076L247.64 566.843L242.537 577.968L246.282 579.686L245.549 581.286Z" fill="white"/>
<path d="M226.221 571.847L224.378 570.883L232.639 565.792L235.262 560.777L236.91 561.639L234.278 566.672L234.799 576.334L232.956 575.37L232.629 567.796L226.221 571.847Z" fill="white"/>
<path d="M113.755 406.48C114.281 408.547 114.036 410.419 113.018 412.096C112.014 413.769 110.516 414.859 108.527 415.366C106.537 415.873 104.7 415.632 103.018 414.643C101.322 413.658 100.211 412.132 99.6841 410.065C99.3714 408.837 99.3789 407.625 99.7067 406.427C100.034 405.229 100.628 404.21 101.488 403.372L102.799 404.71C102.148 405.289 101.702 406.021 101.46 406.909C101.202 407.786 101.191 408.69 101.428 409.62C101.83 411.197 102.66 412.347 103.918 413.073C105.163 413.801 106.548 413.971 108.072 413.583C109.584 413.198 110.712 412.387 111.457 411.152C112.215 409.913 112.393 408.506 111.991 406.929C111.754 405.999 111.319 405.209 110.685 404.558C110.036 403.898 109.293 403.468 108.458 403.268L108.949 401.471C110.102 401.783 111.115 402.385 111.989 403.277C112.847 404.159 113.435 405.227 113.755 406.48Z" fill="white"/>
<path d="M104.64 400.033C102.646 400.398 100.835 400.017 99.2061 398.892C97.564 397.769 96.5608 396.21 96.1963 394.217C95.8318 392.223 96.2188 390.411 97.3573 388.779C98.4803 387.137 100.039 386.134 102.032 385.769C104.013 385.407 105.825 385.794 107.47 386.931C109.112 388.054 110.115 389.612 110.48 391.605C110.844 393.599 110.457 395.412 109.319 397.043C108.167 398.677 106.607 399.673 104.64 400.033ZM102.367 387.599C100.845 387.877 99.6666 388.621 98.8306 389.832C97.9767 391.018 97.6888 392.372 97.9669 393.893C98.2427 395.401 98.9922 396.572 100.215 397.406C101.436 398.226 102.801 398.499 104.309 398.223C105.804 397.95 106.984 397.212 107.849 396.01C108.685 394.8 108.965 393.441 108.689 391.933C108.411 390.411 107.669 389.246 106.464 388.436C105.228 387.605 103.862 387.326 102.367 387.599Z" fill="white"/>
<path d="M93.3159 372.265L93.0816 370.178L106.994 368.616L107.199 370.445L96.3278 371.665L104.411 375.367L104.438 375.605L97.3962 381.004L108.248 379.786L108.456 381.635L94.5429 383.196L94.3087 381.11L101.165 375.852L93.3159 372.265Z" fill="white"/>
<path d="M92.1909 354.5L92.1018 352.402L106.089 351.808L106.167 353.646L95.2372 354.11L103.045 358.363L103.055 358.603L95.6561 363.501L106.566 363.038L106.645 364.896L92.6578 365.49L92.5686 363.392L99.7727 358.622L92.1909 354.5Z" fill="white"/>
<path d="M101.331 346.402L92.0346 346.15L92.0848 344.291L101.301 344.54C102.301 344.567 103.095 344.295 103.684 343.724C104.274 343.14 104.583 342.308 104.612 341.228C104.641 340.149 104.377 339.308 103.82 338.706C103.263 338.091 102.485 337.77 101.485 337.743L92.2685 337.494L92.3182 335.654L101.615 335.906C103.134 335.947 104.327 336.466 105.194 337.463C106.061 338.46 106.473 339.731 106.431 341.278C106.389 342.837 105.909 344.091 104.989 345.04C104.07 345.989 102.851 346.443 101.331 346.402Z" fill="white"/>
<path d="M103.666 323.273L93.2633 322.388L93.4209 320.535L107.371 321.721L107.243 323.216L96.2109 329.504L106.633 330.39L106.476 332.243L92.526 331.057L92.6531 329.562L103.666 323.273Z" fill="white"/>
<path d="M107.811 318.083L93.9238 316.307L94.1597 314.462L108.047 316.238L107.811 318.083Z" fill="white"/>
<path d="M94.5837 310.743L96.2478 300.781L97.9838 301.071L97.3017 305.154L109.374 307.171L109.071 308.986L96.9985 306.969L96.3197 311.033L94.5837 310.743Z" fill="white"/>
<path d="M98.8064 288.567L99.2583 286.537L106.322 293.19L111.846 294.42L111.442 296.235L105.898 295.001L96.7033 298.016L97.1552 295.985L104.384 293.701L98.8064 288.567Z" fill="white"/>
<path d="M241.383 114.535L250.67 110.565L251.362 112.184L247.555 113.811L252.365 125.066L250.673 125.789L245.863 114.534L242.075 116.153L241.383 114.535Z" fill="white"/>
<path d="M258.576 115.827L260.12 119.99L266.214 117.73L266.826 119.38L258.988 122.287L254.119 109.161L261.863 106.288L262.475 107.939L256.475 110.164L257.97 114.196L263.502 112.144L264.107 113.775L258.576 115.827Z" fill="white"/>
<path d="M280.938 114.821L279.048 115.41L277.024 112.753L271.01 114.629L270.857 117.966L268.967 118.556L269.779 103.637L271.784 103.011L280.938 114.821ZM271.434 105.446L271.103 112.778L275.895 111.282L271.434 105.446Z" fill="white"/>
<path d="M289.921 98.0872L291.96 97.5842L295.312 111.177L293.526 111.617L290.906 100.996L288.284 109.491L288.051 109.548L281.784 103.267L284.4 113.869L282.594 114.314L279.241 100.722L281.28 100.219L287.382 106.335L289.921 98.0872Z" fill="white"/>
<path d="M126 186L98.8579 158.858C95.1071 155.107 90.0201 153 84.7157 153H31" stroke="white" stroke-width="2" stroke-linecap="square"/>
<path d="M51.232 123.736L46.688 129.752C48.352 130.136 49.6747 130.904 50.656 132.056C51.6587 133.187 52.16 134.573 52.16 136.216C52.16 138.456 51.4027 140.216 49.888 141.496C48.3947 142.776 46.5387 143.416 44.32 143.416C42.5707 143.416 41.024 143.021 39.68 142.232C38.336 141.421 37.376 140.269 36.8 138.776L39.936 136.952C40.5973 138.872 42.0587 139.832 44.32 139.832C45.6 139.832 46.6133 139.512 47.36 138.872C48.1067 138.211 48.48 137.325 48.48 136.216C48.48 135.107 48.1067 134.232 47.36 133.592C46.6133 132.952 45.6 132.632 44.32 132.632H43.488L42.016 130.424L46.848 124.056H37.472V120.6H51.232V123.736ZM69.8253 140.248C68.2893 142.36 66.1346 143.416 63.3613 143.416C60.6093 143.416 58.4439 142.36 56.8653 140.248C55.3293 138.136 54.5613 135.32 54.5613 131.8C54.5613 128.28 55.3293 125.464 56.8653 123.352C58.4439 121.24 60.6093 120.184 63.3613 120.184C66.1346 120.184 68.2893 121.24 69.8253 123.352C71.3826 125.443 72.1613 128.259 72.1613 131.8C72.1613 135.341 71.3826 138.157 69.8253 140.248ZM63.3613 139.832C65.0253 139.832 66.2946 139.139 67.1693 137.752C68.0439 136.365 68.4813 134.381 68.4813 131.8C68.4813 129.219 68.0439 127.235 67.1693 125.848C66.2946 124.461 65.0253 123.768 63.3613 123.768C61.7186 123.768 60.4493 124.461 59.5533 125.848C58.6786 127.235 58.2413 129.219 58.2413 131.8C58.2413 134.381 58.6786 136.365 59.5533 137.752C60.4493 139.139 61.7186 139.832 63.3613 139.832ZM83.3725 121.656C84.3752 122.659 84.8765 123.875 84.8765 125.304C84.8765 126.733 84.3752 127.949 83.3725 128.952C82.3912 129.933 81.1538 130.424 79.6605 130.424C78.1458 130.424 76.8978 129.933 75.9165 128.952C74.9138 127.949 74.4125 126.733 74.4125 125.304C74.4125 123.896 74.9138 122.691 75.9165 121.688C76.9192 120.685 78.1672 120.184 79.6605 120.184C81.1538 120.184 82.3912 120.675 83.3725 121.656ZM79.6285 127.608C80.3112 127.608 80.8658 127.395 81.2925 126.968C81.7192 126.52 81.9325 125.965 81.9325 125.304C81.9325 124.643 81.7192 124.088 81.2925 123.64C80.8658 123.192 80.3112 122.968 79.6285 122.968C78.9672 122.968 78.4232 123.192 77.9965 123.64C77.5698 124.088 77.3565 124.643 77.3565 125.304C77.3565 125.944 77.5698 126.488 77.9965 126.936C78.4445 127.384 78.9885 127.608 79.6285 127.608ZM78.0285 140.728L76.3005 139.704L91.0525 123.288L92.7805 124.28L78.0285 140.728ZM89.9005 143.384C88.3858 143.384 87.1378 142.893 86.1565 141.912C85.1538 140.909 84.6525 139.693 84.6525 138.264C84.6525 136.856 85.1538 135.651 86.1565 134.648C87.1592 133.645 88.4072 133.144 89.9005 133.144C91.3725 133.144 92.6098 133.645 93.6125 134.648C94.6152 135.651 95.1165 136.856 95.1165 138.264C95.1165 139.693 94.6152 140.909 93.6125 141.912C92.6312 142.893 91.3938 143.384 89.9005 143.384ZM89.8685 140.568C90.5512 140.568 91.1058 140.355 91.5325 139.928C91.9592 139.48 92.1725 138.925 92.1725 138.264C92.1725 137.603 91.9592 137.048 91.5325 136.6C91.1058 136.152 90.5512 135.928 89.8685 135.928C89.2072 135.928 88.6632 136.152 88.2365 136.6C87.8098 137.048 87.5965 137.603 87.5965 138.264C87.5965 138.904 87.8098 139.448 88.2365 139.896C88.6845 140.344 89.2285 140.568 89.8685 140.568Z" fill="white"/>
<circle cx="26" cy="153" r="6" stroke="#00FF59" stroke-width="4"/>
<path d="M252.5 598L231.858 618.642C228.107 622.393 223.02 624.5 217.716 624.5H164" stroke="white" stroke-width="2" stroke-linecap="square"/>
<path d="M169.416 637.18L175.304 635.1H178.504V657.5H174.824V639.036L170.312 640.316L169.416 637.18ZM197.45 654.748C195.914 656.86 193.76 657.916 190.986 657.916C188.234 657.916 186.069 656.86 184.49 654.748C182.954 652.636 182.186 649.82 182.186 646.3C182.186 642.78 182.954 639.964 184.49 637.852C186.069 635.74 188.234 634.684 190.986 634.684C193.76 634.684 195.914 635.74 197.45 637.852C199.008 639.943 199.786 642.759 199.786 646.3C199.786 649.841 199.008 652.657 197.45 654.748ZM190.986 654.332C192.65 654.332 193.92 653.639 194.794 652.252C195.669 650.865 196.106 648.881 196.106 646.3C196.106 643.719 195.669 641.735 194.794 640.348C193.92 638.961 192.65 638.268 190.986 638.268C189.344 638.268 188.074 638.961 187.178 640.348C186.304 641.735 185.866 643.719 185.866 646.3C185.866 648.881 186.304 650.865 187.178 652.252C188.074 653.639 189.344 654.332 190.986 654.332ZM210.998 636.156C212 637.159 212.502 638.375 212.502 639.804C212.502 641.233 212 642.449 210.998 643.452C210.016 644.433 208.779 644.924 207.286 644.924C205.771 644.924 204.523 644.433 203.542 643.452C202.539 642.449 202.038 641.233 202.038 639.804C202.038 638.396 202.539 637.191 203.542 636.188C204.544 635.185 205.792 634.684 207.286 634.684C208.779 634.684 210.016 635.175 210.998 636.156ZM207.254 642.108C207.936 642.108 208.491 641.895 208.918 641.468C209.344 641.02 209.558 640.465 209.558 639.804C209.558 639.143 209.344 638.588 208.918 638.14C208.491 637.692 207.936 637.468 207.254 637.468C206.592 637.468 206.048 637.692 205.622 638.14C205.195 638.588 204.982 639.143 204.982 639.804C204.982 640.444 205.195 640.988 205.622 641.436C206.07 641.884 206.614 642.108 207.254 642.108ZM205.654 655.228L203.926 654.204L218.678 637.788L220.406 638.78L205.654 655.228ZM217.526 657.884C216.011 657.884 214.763 657.393 213.782 656.412C212.779 655.409 212.278 654.193 212.278 652.764C212.278 651.356 212.779 650.151 213.782 649.148C214.784 648.145 216.032 647.644 217.526 647.644C218.998 647.644 220.235 648.145 221.238 649.148C222.24 650.151 222.742 651.356 222.742 652.764C222.742 654.193 222.24 655.409 221.238 656.412C220.256 657.393 219.019 657.884 217.526 657.884ZM217.494 655.068C218.176 655.068 218.731 654.855 219.158 654.428C219.584 653.98 219.798 653.425 219.798 652.764C219.798 652.103 219.584 651.548 219.158 651.1C218.731 650.652 218.176 650.428 217.494 650.428C216.832 650.428 216.288 650.652 215.862 651.1C215.435 651.548 215.222 652.103 215.222 652.764C215.222 653.404 215.435 653.948 215.862 654.396C216.31 654.844 216.854 655.068 217.494 655.068Z" fill="white"/>
<circle cx="8" cy="8" r="6" transform="matrix(1 0 0 -1 151 632.5)" stroke="#0055FF" stroke-width="4"/>
<path d="M256.5 95.5L229.858 68.8579C226.107 65.1071 221.02 63 215.716 63H162" stroke="white" stroke-width="2" stroke-linecap="square"/>
<path d="M167.416 32.68L173.304 30.6H176.504V53H172.824V34.536L168.312 35.816L167.416 32.68ZM195.45 50.248C193.914 52.36 191.76 53.416 188.986 53.416C186.234 53.416 184.069 52.36 182.49 50.248C180.954 48.136 180.186 45.32 180.186 41.8C180.186 38.28 180.954 35.464 182.49 33.352C184.069 31.24 186.234 30.184 188.986 30.184C191.76 30.184 193.914 31.24 195.45 33.352C197.008 35.4427 197.786 38.2587 197.786 41.8C197.786 45.3413 197.008 48.1573 195.45 50.248ZM188.986 49.832C190.65 49.832 191.92 49.1387 192.794 47.752C193.669 46.3653 194.106 44.3813 194.106 41.8C194.106 39.2187 193.669 37.2347 192.794 35.848C191.92 34.4613 190.65 33.768 188.986 33.768C187.344 33.768 186.074 34.4613 185.178 35.848C184.304 37.2347 183.866 39.2187 183.866 41.8C183.866 44.3813 184.304 46.3653 185.178 47.752C186.074 49.1387 187.344 49.832 188.986 49.832ZM208.998 31.656C210 32.6587 210.502 33.8747 210.502 35.304C210.502 36.7333 210 37.9493 208.998 38.952C208.016 39.9333 206.779 40.424 205.286 40.424C203.771 40.424 202.523 39.9333 201.542 38.952C200.539 37.9493 200.038 36.7333 200.038 35.304C200.038 33.896 200.539 32.6907 201.542 31.688C202.544 30.6853 203.792 30.184 205.286 30.184C206.779 30.184 208.016 30.6747 208.998 31.656ZM205.254 37.608C205.936 37.608 206.491 37.3947 206.918 36.968C207.344 36.52 207.558 35.9653 207.558 35.304C207.558 34.6427 207.344 34.088 206.918 33.64C206.491 33.192 205.936 32.968 205.254 32.968C204.592 32.968 204.048 33.192 203.622 33.64C203.195 34.088 202.982 34.6427 202.982 35.304C202.982 35.944 203.195 36.488 203.622 36.936C204.07 37.384 204.614 37.608 205.254 37.608ZM203.654 50.728L201.926 49.704L216.678 33.288L218.406 34.28L203.654 50.728ZM215.526 53.384C214.011 53.384 212.763 52.8933 211.782 51.912C210.779 50.9093 210.278 49.6933 210.278 48.264C210.278 46.856 210.779 45.6507 211.782 44.648C212.784 43.6453 214.032 43.144 215.526 43.144C216.998 43.144 218.235 43.6453 219.238 44.648C220.24 45.6507 220.742 46.856 220.742 48.264C220.742 49.6933 220.24 50.9093 219.238 51.912C218.256 52.8933 217.019 53.384 215.526 53.384ZM215.494 50.568C216.176 50.568 216.731 50.3547 217.158 49.928C217.584 49.48 217.798 48.9253 217.798 48.264C217.798 47.6027 217.584 47.048 217.158 46.6C216.731 46.152 216.176 45.928 215.494 45.928C214.832 45.928 214.288 46.152 213.862 46.6C213.435 47.048 213.222 47.6027 213.222 48.264C213.222 48.904 213.435 49.448 213.862 49.896C214.31 50.344 214.854 50.568 215.494 50.568Z" fill="white"/>
<circle cx="157" cy="63" r="6" stroke="#FFA012" stroke-width="4"/>
<path d="M488 118L510.142 95.8579C513.893 92.1071 518.98 90 524.284 90H583" stroke="white" stroke-width="2" stroke-linecap="square"/>
<path d="M524.984 66.048H527.8C529.933 66.048 531.736 66.688 533.208 67.968C534.68 69.2267 535.416 70.976 535.416 73.216C535.416 75.456 534.659 77.216 533.144 78.496C531.651 79.776 529.795 80.416 527.576 80.416C525.763 80.416 524.184 80 522.84 79.168C521.496 78.336 520.536 77.152 519.96 75.616L523.128 73.792C523.747 75.8187 525.229 76.832 527.576 76.832C528.835 76.832 529.837 76.512 530.584 75.872C531.352 75.2107 531.736 74.3253 531.736 73.216C531.736 72.128 531.363 71.264 530.616 70.624C529.869 69.9627 528.877 69.632 527.64 69.632H521.112L521.976 57.6H534.456V61.056H525.368L524.984 66.048ZM552.482 77.248C550.946 79.36 548.791 80.416 546.018 80.416C543.266 80.416 541.1 79.36 539.522 77.248C537.986 75.136 537.218 72.32 537.218 68.8C537.218 65.28 537.986 62.464 539.522 60.352C541.1 58.24 543.266 57.184 546.018 57.184C548.791 57.184 550.946 58.24 552.482 60.352C554.039 62.4427 554.818 65.2587 554.818 68.8C554.818 72.3413 554.039 75.1573 552.482 77.248ZM546.018 76.832C547.682 76.832 548.951 76.1387 549.826 74.752C550.7 73.3653 551.138 71.3813 551.138 68.8C551.138 66.2187 550.7 64.2347 549.826 62.848C548.951 61.4613 547.682 60.768 546.018 60.768C544.375 60.768 543.106 61.4613 542.21 62.848C541.335 64.2347 540.898 66.2187 540.898 68.8C540.898 71.3813 541.335 73.3653 542.21 74.752C543.106 76.1387 544.375 76.832 546.018 76.832ZM566.029 58.656C567.031 59.6587 567.533 60.8747 567.533 62.304C567.533 63.7333 567.031 64.9493 566.029 65.952C565.047 66.9333 563.81 67.424 562.317 67.424C560.802 67.424 559.554 66.9333 558.573 65.952C557.57 64.9493 557.069 63.7333 557.069 62.304C557.069 60.896 557.57 59.6907 558.573 58.688C559.575 57.6853 560.823 57.184 562.317 57.184C563.81 57.184 565.047 57.6747 566.029 58.656ZM562.285 64.608C562.967 64.608 563.522 64.3947 563.949 63.968C564.375 63.52 564.589 62.9653 564.589 62.304C564.589 61.6427 564.375 61.088 563.949 60.64C563.522 60.192 562.967 59.968 562.285 59.968C561.623 59.968 561.079 60.192 560.653 60.64C560.226 61.088 560.013 61.6427 560.013 62.304C560.013 62.944 560.226 63.488 560.653 63.936C561.101 64.384 561.645 64.608 562.285 64.608ZM560.685 77.728L558.957 76.704L573.709 60.288L575.437 61.28L560.685 77.728ZM572.557 80.384C571.042 80.384 569.794 79.8933 568.813 78.912C567.81 77.9093 567.309 76.6933 567.309 75.264C567.309 73.856 567.81 72.6507 568.813 71.648C569.815 70.6453 571.063 70.144 572.557 70.144C574.029 70.144 575.266 70.6453 576.269 71.648C577.271 72.6507 577.773 73.856 577.773 75.264C577.773 76.6933 577.271 77.9093 576.269 78.912C575.287 79.8933 574.05 80.384 572.557 80.384ZM572.525 77.568C573.207 77.568 573.762 77.3547 574.189 76.928C574.615 76.48 574.829 75.9253 574.829 75.264C574.829 74.6027 574.615 74.048 574.189 73.6C573.762 73.152 573.207 72.928 572.525 72.928C571.863 72.928 571.319 73.152 570.893 73.6C570.466 74.048 570.253 74.6027 570.253 75.264C570.253 75.904 570.466 76.448 570.893 76.896C571.341 77.344 571.885 77.568 572.525 77.568Z" fill="white"/>
<circle cx="8" cy="8" r="6" transform="matrix(-1 0 0 1 596 82)" stroke="#C112FF" stroke-width="4"/>
<defs>
<filter id="filter0_f_229_1903" x="0" y="0" width="694" height="694" filterUnits="userSpaceOnUse" color-interpolation-filters="sRGB">
<feFlood flood-opacity="0" result="BackgroundImageFix"/>
<feBlend mode="normal" in="SourceGraphic" in2="BackgroundImageFix" result="shape"/>
<feGaussianBlur stdDeviation="30" result="effect1_foregroundBlur_229_1903"/>
</filter>
<filter id="filter1_f_229_1903" x="35" y="35" width="624" height="624" filterUnits="userSpaceOnUse" color-interpolation-filters="sRGB">
<feFlood flood-opacity="0" result="BackgroundImageFix"/>
<feBlend mode="normal" in="SourceGraphic" in2="BackgroundImageFix" result="shape"/>
<feGaussianBlur stdDeviation="12.5" result="effect1_foregroundBlur_229_1903"/>
</filter>
<filter id="filter2_f_229_1903" x="52" y="52" width="590" height="590" filterUnits="userSpaceOnUse" color-interpolation-filters="sRGB">
<feFlood flood-opacity="0" result="BackgroundImageFix"/>
<feBlend mode="normal" in="SourceGraphic" in2="BackgroundImageFix" result="shape"/>
<feGaussianBlur stdDeviation="5" result="effect1_foregroundBlur_229_1903"/>
</filter>
<filter id="filter3_f_229_1903" x="201.144" y="296.632" width="66.2227" height="66.2905" filterUnits="userSpaceOnUse" color-interpolation-filters="sRGB">
<feFlood flood-opacity="0" result="BackgroundImageFix"/>
<feBlend mode="normal" in="SourceGraphic" in2="BackgroundImageFix" result="shape"/>
<feGaussianBlur stdDeviation="1.86798" result="effect1_foregroundBlur_229_1903"/>
</filter>
<filter id="filter4_f_229_1903" x="192.178" y="287.666" width="84.1553" height="84.2232" filterUnits="userSpaceOnUse" color-interpolation-filters="sRGB">
<feFlood flood-opacity="0" result="BackgroundImageFix"/>
<feBlend mode="normal" in="SourceGraphic" in2="BackgroundImageFix" result="shape"/>
<feGaussianBlur stdDeviation="6.35114" result="effect1_foregroundBlur_229_1903"/>
</filter>
<filter id="filter5_f_229_1903" x="192.178" y="287.666" width="84.1553" height="84.2232" filterUnits="userSpaceOnUse" color-interpolation-filters="sRGB">
<feFlood flood-opacity="0" result="BackgroundImageFix"/>
<feBlend mode="normal" in="SourceGraphic" in2="BackgroundImageFix" result="shape"/>
<feGaussianBlur stdDeviation="6.35114" result="effect1_foregroundBlur_229_1903"/>
</filter>
<linearGradient id="paint0_linear_229_1903" x1="75.5" y1="90.5" x2="510.173" y2="592.35" gradientUnits="userSpaceOnUse">
<stop stop-color="#0038FF"/>
<stop offset="0.400346" stop-color="#0038FF"/>
<stop offset="0.637606" stop-color="#8F00FF"/>
<stop offset="0.934359" stop-color="#FF3D00"/>
</linearGradient>
<linearGradient id="paint1_linear_229_1903" x1="75.5" y1="90.5" x2="510.173" y2="592.35" gradientUnits="userSpaceOnUse">
<stop stop-color="#0038FF"/>
<stop offset="0.400346" stop-color="#0038FF"/>
<stop offset="0.637606" stop-color="#8F00FF"/>
<stop offset="0.934359" stop-color="#FF3D00"/>
</linearGradient>
<linearGradient id="paint2_linear_229_1903" x1="75.5" y1="90.5" x2="510.173" y2="592.35" gradientUnits="userSpaceOnUse">
<stop stop-color="#0038FF"/>
<stop offset="0.400346" stop-color="#0038FF"/>
<stop offset="0.637606" stop-color="#8F00FF"/>
<stop offset="0.934359" stop-color="#FF3D00"/>
</linearGradient>
<linearGradient id="paint3_linear_229_1903" x1="255.176" y1="308.496" x2="214.45" y2="349.81" gradientUnits="userSpaceOnUse">
<stop stop-color="#0047FF"/>
<stop offset="1" stop-color="#FF00B8"/>
</linearGradient>
<linearGradient id="paint4_linear_229_1903" x1="249.972" y1="313.706" x2="214.457" y2="349.816" gradientUnits="userSpaceOnUse">
<stop stop-color="#0238FF"/>
<stop offset="1" stop-color="#FF006B"/>
</linearGradient>
<linearGradient id="paint5_linear_229_1903" x1="254.752" y1="308.815" x2="214.451" y2="349.81" gradientUnits="userSpaceOnUse">
<stop stop-color="#0238FF"/>
<stop offset="1" stop-color="#FF00F5"/>
</linearGradient>
</defs>
</svg>
