<svg width="24" height="24" viewBox="0 0 24 24" fill="none" xmlns="http://www.w3.org/2000/svg">
<path d="M3.58579 6.99956C3.96086 6.687 4.46957 6.51141 5 6.51141H16.8714M3.58579 6.99956C3.21071 7.31212 3 7.73605 3 8.17807V18.1781C3 18.6201 3.21071 19.044 3.58579 19.3566C3.96086 19.6691 4.46957 19.8447 5 19.8447H18C18.5304 19.8447 19.0391 19.6691 19.4142 19.3566C19.7893 19.044 20 18.6201 20 18.1781V15.8398M3.58579 6.99956V5.99994C3.58579 4.89537 4.48122 3.99994 5.58579 3.99994H14.8714C15.976 3.99994 16.8714 4.89537 16.8714 5.99994V6.51141M20 15.8398H17.5507C16.142 15.8398 15 14.6978 15 13.2891V13.2891C15 11.8804 16.142 10.7384 17.5507 10.7384H20M20 15.8398V15.8398C20.6084 15.5675 21 14.9631 21 14.2966V11.9817C21 11.3839 20.584 10.8666 20 10.7384V10.7384M17.99 13.3634H18M20 10.7384V8.17807C20 7.73605 19.7893 7.31212 19.4142 6.99956C19.0391 6.687 18.5304 6.51141 18 6.51141H16.8714" stroke="white" stroke-width="1.8" stroke-linecap="round" stroke-linejoin="round"/>
</svg>
