<svg width="176" height="64" viewBox="0 0 176 64" fill="none" xmlns="http://www.w3.org/2000/svg">
<path d="M41.4976 28.316H51.8429V31.18L46.3646 36.6877H51.8429V39.7721H41.4976V36.908L46.9759 31.4003H41.4976V28.316Z" fill="white"/>
<path d="M61.5073 33.1848L66.8915 39.7721H62.1656L58.9445 35.8506L57.7218 37.1284V39.7721H53.9599V23.4692H57.7218V32.4138L61.4838 28.316H66.1862L61.5073 33.1848Z" fill="white"/>
<path d="M78.8791 39.7721H67.5932V24.3505H71.5903V36.4674H78.8791V39.7721Z" fill="white"/>
<path d="M85.4578 28.0957C87.088 28.0957 88.3969 28.4923 89.3844 29.2854C90.3876 30.0638 90.8891 31.2167 90.8891 32.7442V39.7721H87.1272V38.6485C86.2337 39.5444 85.0581 39.9924 83.6004 39.9924C82.4405 39.9924 81.4765 39.6913 80.7084 39.0891C79.956 38.4722 79.5798 37.6571 79.5798 36.6437C79.5798 34.4112 81.21 33.1481 84.4703 32.8544L86.1397 32.7222C86.798 32.6781 87.1272 32.4284 87.1272 31.9731C87.1272 31.6794 86.9705 31.4371 86.657 31.2461C86.3591 31.0552 85.9751 30.9597 85.5049 30.9597C84.9719 30.9597 84.5487 31.0919 84.2352 31.3563C83.9217 31.6206 83.7336 31.9658 83.6709 32.3917L79.9325 31.6427C80.0579 30.6586 80.6065 29.8215 81.5784 29.1312C82.5659 28.4409 83.859 28.0957 85.4578 28.0957ZM84.5644 37.2385C85.2227 37.2385 85.8105 37.0182 86.3278 36.5776C86.8607 36.137 87.1272 35.6449 87.1272 35.1015V35.0354C86.9705 35.1089 86.6805 35.1676 86.2573 35.2117L84.4468 35.4099C83.7101 35.4981 83.3418 35.8065 83.3418 36.3352C83.3418 36.6143 83.4436 36.8346 83.6474 36.9962C83.8669 37.1577 84.1725 37.2385 84.5644 37.2385Z" fill="white"/>
<path d="M92.7677 34.8812V28.316H96.5297V34.8812C96.5297 35.454 96.7178 35.9167 97.094 36.2692C97.4858 36.607 98.0031 36.7759 98.6458 36.7759C99.2571 36.7759 99.7587 36.607 100.151 36.2692C100.558 35.9167 100.762 35.454 100.762 34.8812V28.316H104.524V34.8812C104.524 36.394 103.967 37.6277 102.854 38.5824C101.757 39.5224 100.354 39.9924 98.6458 39.9924C96.9059 39.9924 95.4873 39.5224 94.3901 38.5824C93.3085 37.6277 92.7677 36.394 92.7677 34.8812Z" fill="white"/>
<path d="M113.925 28.0957C115.367 28.0957 116.527 28.529 117.405 29.3955C118.298 30.2621 118.745 31.3783 118.745 32.7442V39.7721H114.983V33.4051C114.983 32.7736 114.764 32.2669 114.325 31.885C113.901 31.4885 113.337 31.2902 112.632 31.2902C111.942 31.2902 111.378 31.4885 110.939 31.885C110.5 32.2669 110.281 32.7736 110.281 33.4051V39.7721H106.519V28.316H110.281V29.6819C111.205 28.6245 112.42 28.0957 113.925 28.0957Z" fill="white"/>
<path d="M122.16 38.296C120.906 37.1504 120.279 35.7331 120.279 34.044C120.279 32.355 120.906 30.945 122.16 29.8141C123.429 28.6685 124.997 28.0957 126.862 28.0957C128.163 28.0957 129.339 28.4188 130.389 29.0651C131.439 29.6966 132.223 30.5999 132.74 31.7749L129.307 32.8764C128.821 31.8336 128.006 31.3122 126.862 31.3122C126.094 31.3122 125.451 31.5766 124.934 32.1053C124.433 32.6194 124.182 33.2656 124.182 34.044C124.182 34.8225 124.433 35.476 124.934 36.0048C125.451 36.5188 126.094 36.7759 126.862 36.7759C128.006 36.7759 128.821 36.2545 129.307 35.2117L132.74 36.3132C132.223 37.4882 131.439 38.3988 130.389 39.045C129.339 39.6766 128.163 39.9924 126.862 39.9924C124.997 39.9924 123.429 39.4269 122.16 38.296Z" fill="white"/>
<path d="M141.559 28.0957C143.001 28.0957 144.161 28.529 145.039 29.3955C145.932 30.2621 146.379 31.3783 146.379 32.7442V39.7721H142.617V33.4051C142.617 32.7736 142.398 32.2669 141.959 31.885C141.536 31.4885 140.971 31.2902 140.266 31.2902C139.576 31.2902 139.012 31.4885 138.573 31.885C138.134 32.2669 137.915 32.7736 137.915 33.4051V39.7721H134.153V23.4692H137.915V29.6819C138.839 28.6245 140.054 28.0957 141.559 28.0957Z" fill="white"/>
<g filter="url(#filter0_f_516_6561)">
<path d="M24.0396 38.1165L28.6096 39.5417C29.0279 39.6722 29.4746 39.4399 29.5917 39.031L35.2047 19.4372C35.3646 18.879 34.8327 18.3658 34.2543 18.5201L13.9485 23.9362C13.5247 24.0493 13.284 24.4803 13.4193 24.884L14.8962 29.2937M24.0396 38.1165L17.1295 35.9615M24.0396 38.1165L21.6518 45.0836C21.4173 45.7679 20.413 45.7646 20.1833 45.0788L17.1295 35.9615M24.0396 38.1165L28.0752 26.3414C28.2746 25.7597 27.702 25.2072 27.0992 25.3996L14.8962 29.2937M17.1295 35.9615L7.68095 33.0149C6.97022 32.7932 6.96681 31.8241 7.67596 31.5978L14.8962 29.2937M17.1295 35.9615L14.8962 29.2937" stroke="url(#paint0_linear_516_6561)" stroke-width="1.59692" stroke-linejoin="round"/>
</g>
<g filter="url(#filter1_f_516_6561)">
<path d="M24.0396 38.1165L28.6096 39.5417C29.0279 39.6722 29.4746 39.4399 29.5917 39.031L35.2047 19.4372C35.3646 18.879 34.8327 18.3658 34.2543 18.5201L13.9485 23.9362C13.5247 24.0493 13.284 24.4803 13.4193 24.884L14.8962 29.2937M24.0396 38.1165L17.1295 35.9615M24.0396 38.1165L21.6518 45.0836C21.4173 45.7679 20.413 45.7646 20.1833 45.0788L17.1295 35.9615M24.0396 38.1165L28.0752 26.3414C28.2746 25.7597 27.702 25.2072 27.0992 25.3996L14.8962 29.2937M17.1295 35.9615L7.68095 33.0149C6.97022 32.7932 6.96681 31.8241 7.67596 31.5978L14.8962 29.2937M17.1295 35.9615L14.8962 29.2937" stroke="url(#paint1_linear_516_6561)" stroke-width="1.59692" stroke-linejoin="round"/>
<path d="M24.0396 38.1165L28.6096 39.5417C29.0279 39.6722 29.4746 39.4399 29.5917 39.031L35.2047 19.4372C35.3646 18.879 34.8327 18.3658 34.2543 18.5201L13.9485 23.9362C13.5247 24.0493 13.284 24.4803 13.4193 24.884L14.8962 29.2937M24.0396 38.1165L17.1295 35.9615M24.0396 38.1165L21.6518 45.0836C21.4173 45.7679 20.413 45.7646 20.1833 45.0788L17.1295 35.9615M24.0396 38.1165L28.0752 26.3414C28.2746 25.7597 27.702 25.2072 27.0992 25.3996L14.8962 29.2937M17.1295 35.9615L7.68095 33.0149C6.97022 32.7932 6.96681 31.8241 7.67596 31.5978L14.8962 29.2937M17.1295 35.9615L14.8962 29.2937" stroke="#0038FF" stroke-width="1.59692" stroke-linejoin="round"/>
</g>
<g filter="url(#filter2_f_516_6561)">
<path d="M24.0396 38.1165L28.6096 39.5417C29.0279 39.6722 29.4746 39.4399 29.5917 39.031L35.2047 19.4372C35.3646 18.879 34.8327 18.3658 34.2543 18.5201L13.9485 23.9362C13.5247 24.0493 13.284 24.4803 13.4193 24.884L14.8962 29.2937M24.0396 38.1165L17.1295 35.9615M24.0396 38.1165L21.6518 45.0836C21.4173 45.7679 20.413 45.7646 20.1833 45.0788L17.1295 35.9615M24.0396 38.1165L28.0752 26.3414C28.2746 25.7597 27.702 25.2072 27.0992 25.3996L14.8962 29.2937M17.1295 35.9615L7.68095 33.0149C6.97022 32.7932 6.96681 31.8241 7.67596 31.5978L14.8962 29.2937M17.1295 35.9615L14.8962 29.2937" stroke="url(#paint2_linear_516_6561)" stroke-width="1.59692" stroke-linejoin="round"/>
</g>
<path d="M24.0396 38.1165L28.6096 39.5417C29.0279 39.6722 29.4746 39.4399 29.5917 39.031L35.2047 19.4372C35.3646 18.879 34.8327 18.3658 34.2543 18.5201L13.9485 23.9362C13.5247 24.0493 13.284 24.4803 13.4193 24.884L14.8962 29.2937M24.0396 38.1165L17.1295 35.9615M24.0396 38.1165L21.6518 45.0836C21.4173 45.7679 20.413 45.7646 20.1833 45.0788L17.1295 35.9615M24.0396 38.1165L28.0752 26.3414C28.2746 25.7597 27.702 25.2072 27.0992 25.3996L14.8962 29.2937M17.1295 35.9615L7.68095 33.0149C6.97022 32.7932 6.96681 31.8241 7.67596 31.5978L14.8962 29.2937M17.1295 35.9615L14.8962 29.2937" stroke="white" stroke-width="1.33202" stroke-linejoin="round"/>
<defs>
<filter id="filter0_f_516_6561" x="4.75074" y="16.0981" width="32.8813" height="31.8923" filterUnits="userSpaceOnUse" color-interpolation-filters="sRGB">
<feFlood flood-opacity="0" result="BackgroundImageFix"/>
<feBlend mode="normal" in="SourceGraphic" in2="BackgroundImageFix" result="shape"/>
<feGaussianBlur stdDeviation="0.798458" result="effect1_foregroundBlur_516_6561"/>
</filter>
<filter id="filter1_f_516_6561" x="0.918143" y="12.2655" width="40.5465" height="39.5574" filterUnits="userSpaceOnUse" color-interpolation-filters="sRGB">
<feFlood flood-opacity="0" result="BackgroundImageFix"/>
<feBlend mode="normal" in="SourceGraphic" in2="BackgroundImageFix" result="shape"/>
<feGaussianBlur stdDeviation="2.71476" result="effect1_foregroundBlur_516_6561"/>
</filter>
<filter id="filter2_f_516_6561" x="0.918143" y="12.2655" width="40.5465" height="39.5574" filterUnits="userSpaceOnUse" color-interpolation-filters="sRGB">
<feFlood flood-opacity="0" result="BackgroundImageFix"/>
<feBlend mode="normal" in="SourceGraphic" in2="BackgroundImageFix" result="shape"/>
<feGaussianBlur stdDeviation="2.71476" result="effect1_foregroundBlur_516_6561"/>
</filter>
<linearGradient id="paint0_linear_516_6561" x1="31.8717" y1="21.5715" x2="11.8563" y2="42.6391" gradientUnits="userSpaceOnUse">
<stop stop-color="#0047FF"/>
<stop offset="1" stop-color="#FF00B8"/>
</linearGradient>
<linearGradient id="paint1_linear_516_6561" x1="29.2148" y1="24.1353" x2="11.7615" y2="42.5477" gradientUnits="userSpaceOnUse">
<stop stop-color="#0238FF"/>
<stop offset="1" stop-color="#FF006B"/>
</linearGradient>
<linearGradient id="paint2_linear_516_6561" x1="31.6548" y1="21.7285" x2="11.8504" y2="42.6316" gradientUnits="userSpaceOnUse">
<stop stop-color="#0238FF"/>
<stop offset="1" stop-color="#FF00F5"/>
</linearGradient>
</defs>
</svg>
